# Blender v2.92.0 OBJ File: 'ArtTruckCannon.blend'
# www.blender.org
mtllib ArtTruckCannon.mtl
o BMC_Plastic_Bevel_5
v 0.300000 -0.100000 0.800000
v 0.100001 -0.300000 0.800000
v 0.100001 -0.300000 -0.800000
v 0.300000 -0.100000 -0.800000
v 0.300000 -0.100000 0.800000
v 0.100001 -0.100000 0.800000
v 0.100001 -0.300000 0.800000
v 0.100001 -0.100000 -0.800000
v 0.300000 -0.100000 -0.800000
v 0.100001 -0.300000 -0.800000
v 0.100001 0.300000 0.800000
v 0.300000 0.100000 0.800000
v 0.300000 0.100000 -0.800000
v 0.100001 0.300000 -0.800000
v 0.100001 0.300000 0.800000
v 0.100001 0.100000 0.800000
v 0.300000 0.100000 0.800000
v 0.100001 0.100000 -0.800000
v 0.100001 0.300000 -0.800000
v 0.300000 0.100000 -0.800000
v -0.100000 -0.300000 0.800000
v -0.300001 -0.100000 0.800000
v -0.300001 -0.100000 -0.800000
v -0.100000 -0.300000 -0.800000
v -0.100000 -0.300000 0.800000
v -0.100000 -0.100000 0.800000
v -0.300001 -0.100000 0.800000
v -0.100000 -0.100000 -0.800000
v -0.100000 -0.300000 -0.800000
v -0.300001 -0.100000 -0.800000
v -0.300001 0.100000 0.800000
v -0.100000 0.300000 0.800000
v -0.100000 0.300000 -0.800000
v -0.300001 0.100000 -0.800000
v -0.300001 0.100000 0.800000
v -0.100000 0.100000 0.800000
v -0.100000 0.300000 0.800000
v -0.100000 0.100000 -0.800000
v -0.300001 0.100000 -0.800000
v -0.100000 0.300000 -0.800000
v 0.300000 0.100000 -0.800000
v 0.300000 0.100000 0.800000
v 0.300000 -0.100000 0.800000
v 0.300000 -0.100000 -0.800000
v 0.300000 0.100000 0.800000
v -0.300001 0.100000 0.800000
v -0.300001 -0.100000 0.800000
v 0.300000 -0.100000 0.800000
v -0.300001 0.100000 -0.800000
v 0.300000 0.100000 -0.800000
v 0.300000 -0.100000 -0.800000
v -0.300001 -0.100000 -0.800000
v -0.300001 0.100000 0.800000
v -0.300001 0.100000 -0.800000
v -0.300001 -0.100000 -0.800000
v -0.300001 -0.100000 0.800000
v -0.100000 0.300000 -0.800000
v 0.100001 0.300000 -0.800000
v 0.100001 0.100000 -0.800000
v -0.100000 0.100000 -0.800000
v 0.100001 0.300000 0.800000
v 0.100001 0.300000 -0.800000
v -0.100000 0.300000 -0.800000
v -0.100000 0.300000 0.800000
v 0.100001 0.300000 0.800000
v -0.100000 0.300000 0.800000
v -0.100000 0.100000 0.800000
v 0.100001 0.100000 0.800000
v -0.100000 -0.100000 -0.800000
v 0.100001 -0.100000 -0.800000
v 0.100001 -0.300000 -0.800000
v -0.100000 -0.300000 -0.800000
v -0.100000 -0.300000 0.800000
v -0.100000 -0.300000 -0.800000
v 0.100001 -0.300000 -0.800000
v 0.100001 -0.300000 0.800000
v 0.100001 -0.100000 0.800000
v -0.100000 -0.100000 0.800000
v -0.100000 -0.300000 0.800000
v 0.100001 -0.300000 0.800000
vt 1.004883 -0.193359
vt 1.004883 1.193359
vt -0.005371 1.193359
vt -0.005371 -0.193359
vt 1.129883 -0.004883
vt 1.129883 1.005371
vt -0.130371 1.005371
vt -0.130371 -0.004883
vt 1.049805 -0.193359
vt 1.049805 1.193359
vt -0.050110 1.193359
vt -0.050110 -0.193359
vt -0.193359 1.193359
vt -0.193359 -0.193359
vt 1.193359 -0.193359
vt -0.193359 1.193359
vt -0.193359 -0.193359
vt 1.193359 1.193359
vt -0.193359 1.193359
vt -0.193359 -0.193359
vt 1.193359 -0.193359
vt -0.193359 1.193359
vt -0.193359 -0.193359
vt 1.193359 1.193359
vt 1.049805 -0.193359
vt 1.049805 1.193359
vt -0.050110 1.193359
vt -0.050110 -0.193359
vt 1.004883 -0.193359
vt 1.004883 1.193359
vt -0.005371 1.193359
vt -0.005371 -0.193359
vt 1.004883 -0.193359
vt 1.004883 1.193359
vt -0.005371 1.193359
vt -0.005371 -0.193359
vt 1.193359 -0.193359
vt 1.193359 1.193359
vt -0.193359 1.193359
vt -0.193359 -0.193359
vt 1.129883 -0.004883
vt 1.129883 1.005371
vt -0.130371 1.005371
vt -0.130371 -0.004883
vt 1.004883 -0.193359
vt 1.004883 1.193359
vt -0.005371 1.193359
vt -0.005371 -0.193359
vt 1.193359 -0.193359
vt 1.193359 1.193359
vt -0.193359 1.193359
vt -0.193359 -0.193359
vt 1.129883 -0.004883
vt 1.129883 1.005371
vt -0.130371 1.005371
vt -0.130371 -0.004883
vt -0.193359 1.193359
vt -0.193359 -0.193359
vt 1.193359 -0.193359
vt -0.193359 1.193359
vt -0.193359 -0.193359
vt 1.193359 1.193359
vt -0.193359 1.193359
vt -0.193359 -0.193359
vt 1.193359 -0.193359
vt -0.193359 1.193359
vt -0.193359 -0.193359
vt 1.193359 1.193359
vt 1.193359 -0.193359
vt 1.193359 1.193359
vt -0.193359 1.193359
vt -0.193359 -0.193359
vt 1.193359 -0.193359
vt 1.193359 1.193359
vt -0.193359 1.193359
vt -0.193359 -0.193359
vt 1.129883 -0.004883
vt 1.129883 1.005371
vt -0.130371 1.005371
vt -0.130371 -0.004883
vn 0.0000 1.0000 0.0000
vn -0.7071 0.7071 -0.0000
vn 0.0000 0.0000 1.0000
vn 0.0000 0.0000 -1.0000
vn -1.0000 0.0000 -0.0000
vn 0.0000 -1.0000 0.0000
vn 0.7071 -0.7071 0.0000
vn 1.0000 0.0000 0.0000
vn -0.7071 -0.7071 -0.0000
vn 0.7071 0.7071 0.0000
usemtl BMC_Plastic_Bevel_5
s off
f 64/1/1 61/2/1 62/3/1 63/4/1
f 34/5/2 31/6/2 32/7/2 33/8/2
f 48/9/3 45/10/3 46/11/3 47/12/3
f 5/13/3 6/14/3 7/15/3
f 8/16/4 9/17/4 10/18/4
f 15/19/3 16/20/3 17/21/3
f 18/22/4 19/23/4 20/24/4
f 52/25/4 49/26/4 50/27/4 51/28/4
f 56/29/5 53/30/5 54/31/5 55/32/5
f 76/33/6 73/34/6 74/35/6 75/36/6
f 80/37/3 77/38/3 78/39/3 79/40/3
f 4/41/7 1/42/7 2/43/7 3/44/7
f 44/45/8 41/46/8 42/47/8 43/48/8
f 60/49/4 57/50/4 58/51/4 59/52/4
f 24/53/9 21/54/9 22/55/9 23/56/9
f 25/57/3 26/58/3 27/59/3
f 28/60/4 29/61/4 30/62/4
f 35/63/3 36/64/3 37/65/3
f 38/66/4 39/67/4 40/68/4
f 68/69/3 65/70/3 66/71/3 67/72/3
f 72/73/4 69/74/4 70/75/4 71/76/4
f 14/77/10 11/78/10 12/79/10 13/80/10
