# Blender v2.92.0 OBJ File: 'Barracks.blend'
# www.blender.org
mtllib Barracks.mtl
o BMC_Plastic_Bevel_5
v 2.000010 0.981051 0.999998
v 2.000010 0.581051 1.399998
v 3.000010 0.581051 1.399998
v 3.000010 0.981051 0.999998
v 2.000010 0.981051 0.999998
v 2.000010 0.581051 0.999998
v 2.000010 0.581051 1.399998
v 3.000010 0.581051 0.999998
v 3.000010 0.981051 0.999998
v 3.000010 0.581051 1.399998
v -2.999990 0.981051 0.999998
v -2.999990 0.581051 1.399998
v -1.999990 0.581051 1.399998
v -1.999990 0.981051 0.999998
v -2.999990 0.981051 0.999998
v -2.999990 0.581051 0.999998
v -2.999990 0.581051 1.399998
v -1.999990 0.581051 0.999998
v -1.999990 0.981051 0.999998
v -1.999990 0.581051 1.399998
v -0.999990 0.981051 0.999998
v -0.999990 0.581051 1.399998
v 1.000010 0.581051 1.399998
v 1.000010 0.981051 0.999998
v -0.999990 0.981051 0.999998
v -0.999990 0.581051 0.999998
v -0.999990 0.581051 1.399998
v 1.000010 0.581051 0.999998
v 1.000010 0.981051 0.999998
v 1.000010 0.581051 1.399998
v -2.999990 0.381051 0.999998
v -3.399990 0.381051 0.599998
v -3.399990 -0.818949 0.599998
v -2.999990 -0.818949 0.999998
v -2.999990 0.381051 0.999998
v -2.999990 0.381051 0.599998
v -3.399990 0.381051 0.599998
v -2.999990 -0.818949 0.599998
v -2.999990 -0.818949 0.999998
v -3.399990 -0.818949 0.599998
v -3.399990 0.381051 -0.600002
v -2.999990 0.381051 -1.000002
v -2.999990 -0.818949 -1.000002
v -3.399990 -0.818949 -0.600002
v -3.399990 0.381051 -0.600002
v -2.999990 0.381051 -0.600002
v -2.999990 0.381051 -1.000002
v -2.999990 -0.818949 -0.600002
v -3.399990 -0.818949 -0.600002
v -2.999990 -0.818949 -1.000002
v -2.999990 0.581051 0.599998
v -2.999990 0.381051 0.599998
v -3.399990 0.381051 0.599998
v -2.999990 0.381051 0.999998
v -2.999990 0.581051 0.599998
v -3.399990 0.381051 0.599998
v -2.999990 0.381051 0.599998
v -2.999990 0.381051 0.999998
v -3.399990 0.381051 0.599998
v -3.399990 0.381051 -0.600002
v -2.999990 0.381051 -0.600002
v -2.999990 0.581051 -0.600002
v -3.399990 0.381051 -0.600002
v -2.999990 0.581051 -0.600002
v -2.999990 0.381051 -1.000002
v -2.999990 0.381051 -0.600002
v -3.399990 0.381051 -0.600002
v -2.999990 0.381051 -1.000002
v -3.399990 0.381051 0.599998
v -2.999990 0.581051 0.599998
v -2.999990 0.581051 -0.600002
v -3.399990 0.381051 -0.600002
v -3.399990 0.381051 0.599998
v -2.999990 0.381051 0.599998
v -2.999990 0.581051 0.599998
v -2.999990 0.381051 -0.600002
v -3.399990 0.381051 -0.600002
v -2.999990 0.581051 -0.600002
v -3.399990 0.381051 0.599998
v -3.399990 0.381051 -0.600002
v -3.399990 -0.818949 -0.600002
v -3.399990 -0.818949 0.599998
v -3.399990 -0.818949 0.599998
v -3.399990 -0.818949 -0.600002
v -3.399990 -1.018949 -0.600002
v -3.399990 -1.018949 0.599998
v -2.999990 -1.018949 -0.600002
v -2.999990 -1.018949 0.599998
v -3.399990 -1.018949 0.599998
v -3.399990 -1.018949 -0.600002
v -2.999990 -0.818949 0.999998
v -3.399990 -0.818949 0.599998
v -3.399990 -1.018949 0.599998
v -2.999990 -1.018949 0.999998
v -2.999990 -0.818949 0.999998
v -2.999990 -0.818949 0.599998
v -3.399990 -0.818949 0.599998
v -2.999990 -1.018949 0.599998
v -2.999990 -1.018949 0.999998
v -3.399990 -1.018949 0.599998
v -3.399990 -0.818949 -0.600002
v -2.999990 -0.818949 -1.000002
v -2.999990 -1.018949 -1.000002
v -3.399990 -1.018949 -0.600002
v -3.399990 -0.818949 -0.600002
v -2.999990 -0.818949 -0.600002
v -2.999990 -0.818949 -1.000002
v -2.999990 -1.018949 -0.600002
v -3.399990 -1.018949 -0.600002
v -2.999990 -1.018949 -1.000002
v 2.000010 -0.818949 0.999998
v 1.000010 -0.818949 0.999998
v 1.000010 -1.018949 0.999998
v 2.000010 -1.018949 0.999998
v 1.000010 -0.818949 -1.000002
v 2.000010 -0.818949 -1.000002
v 2.000010 -1.018949 -1.000002
v 1.000010 -1.018949 -1.000002
v 1.000010 -1.018949 -1.000002
v 2.000010 -1.018949 -1.000002
v 2.000010 -1.018949 0.999998
v 1.000010 -1.018949 0.999998
v -0.999990 -0.818949 0.999998
v -1.999990 -0.818949 0.999998
v -1.999990 -1.018949 0.999998
v -0.999990 -1.018949 0.999998
v -1.999990 -0.818949 -1.000002
v -0.999990 -0.818949 -1.000002
v -0.999990 -1.018949 -1.000002
v -1.999990 -1.018949 -1.000002
v -1.999990 -1.018949 -1.000002
v -0.999990 -1.018949 -1.000002
v -0.999990 -1.018949 0.999998
v -1.999990 -1.018949 0.999998
v -0.999990 0.981051 0.999998
v -0.999990 0.981051 -1.000002
v -0.999990 0.581051 -1.000002
v -0.999990 0.581051 0.999998
v 1.000010 0.981051 -1.000002
v -0.999990 0.981051 -1.000002
v -0.999990 0.981051 0.999998
v 1.000010 0.981051 0.999998
v 1.000010 0.981051 -1.000002
v 1.000010 0.981051 0.999998
v 1.000010 0.581051 0.999998
v 1.000010 0.581051 -1.000002
v 1.000010 0.981051 -1.000002
v 1.000010 0.581051 -1.400002
v -0.999990 0.581051 -1.400002
v -0.999990 0.981051 -1.000002
v 1.000010 0.981051 -1.000002
v 1.000010 0.581051 -1.000002
v 1.000010 0.581051 -1.400002
v -0.999990 0.581051 -1.000002
v -0.999990 0.981051 -1.000002
v -0.999990 0.581051 -1.400002
v 2.000010 0.981051 0.999998
v 2.000010 0.981051 -1.000002
v 2.000010 0.581051 -1.000002
v 2.000010 0.581051 0.999998
v 3.000010 0.981051 -1.000002
v 2.000010 0.981051 -1.000002
v 2.000010 0.981051 0.999998
v 3.000010 0.981051 0.999998
v 3.000010 0.981051 -1.000002
v 3.000010 0.981051 0.999998
v 3.000010 0.581051 0.999998
v 3.000010 0.581051 -1.000002
v 3.000010 0.981051 -1.000002
v 3.000010 0.581051 -1.400002
v 2.000010 0.581051 -1.400002
v 2.000010 0.981051 -1.000002
v 3.000010 0.981051 -1.000002
v 3.000010 0.581051 -1.000002
v 3.000010 0.581051 -1.400002
v 2.000010 0.581051 -1.000002
v 2.000010 0.981051 -1.000002
v 2.000010 0.581051 -1.400002
v -2.999990 0.981051 0.999998
v -2.999990 0.981051 -1.000002
v -2.999990 0.581051 -1.000002
v -2.999990 0.581051 0.999998
v -1.999990 0.981051 -1.000002
v -2.999990 0.981051 -1.000002
v -2.999990 0.981051 0.999998
v -1.999990 0.981051 0.999998
v -1.999990 0.981051 -1.000002
v -1.999990 0.981051 0.999998
v -1.999990 0.581051 0.999998
v -1.999990 0.581051 -1.000002
v -1.999990 0.981051 -1.000002
v -1.999990 0.581051 -1.400002
v -2.999990 0.581051 -1.400002
v -2.999990 0.981051 -1.000002
v -1.999990 0.981051 -1.000002
v -1.999990 0.581051 -1.000002
v -1.999990 0.581051 -1.400002
v -2.999990 0.581051 -1.000002
v -2.999990 0.981051 -1.000002
v -2.999990 0.581051 -1.400002
v 2.000010 0.581051 -0.600002
v 1.000010 0.581051 -0.600002
v 1.000010 0.581051 0.599998
v 2.000010 0.581051 0.599998
v 2.000010 0.381051 0.999998
v 1.000010 0.381051 0.999998
v 1.000010 -0.818949 0.999998
v 2.000010 -0.818949 0.999998
v 1.000010 0.381051 -1.000002
v 2.000010 0.381051 -1.000002
v 2.000010 -0.818949 -1.000002
v 1.000010 -0.818949 -1.000002
v 2.000010 0.381051 0.999998
v 2.000010 0.581051 0.599998
v 1.000010 0.581051 0.599998
v 1.000010 0.381051 0.999998
v 1.000010 0.381051 -1.000002
v 1.000010 0.581051 -0.600002
v 2.000010 0.581051 -0.600002
v 2.000010 0.381051 -1.000002
v -0.999990 0.381051 0.999998
v -0.999990 0.581051 0.599998
v -1.999990 0.581051 0.599998
v -1.999990 0.381051 0.999998
v -0.999990 0.381051 0.999998
v -1.999990 0.381051 0.999998
v -1.999990 -0.818949 0.999998
v -0.999990 -0.818949 0.999998
v -1.999990 0.381051 -1.000002
v -0.999990 0.381051 -1.000002
v -0.999990 -0.818949 -1.000002
v -1.999990 -0.818949 -1.000002
v -0.999990 0.581051 -0.600002
v -1.999990 0.581051 -0.600002
v -1.999990 0.581051 0.599998
v -0.999990 0.581051 0.599998
v -1.999990 0.381051 -1.000002
v -1.999990 0.581051 -0.600002
v -0.999990 0.581051 -0.600002
v -0.999990 0.381051 -1.000002
v 1.000010 0.581051 -1.400002
v 1.000010 0.581051 1.399998
v 1.000010 -1.018949 1.399998
v 1.000010 -1.018949 -1.400002
v 1.000010 0.581051 1.399998
v -0.999990 0.581051 1.399998
v -0.999990 -1.018949 1.399998
v 1.000010 -1.018949 1.399998
v -0.999990 0.581051 -1.400002
v 1.000010 0.581051 -1.400002
v 1.000010 -1.018949 -1.400002
v -0.999990 -1.018949 -1.400002
v -0.999990 -1.018949 -1.400002
v 1.000010 -1.018949 -1.400002
v 1.000010 -1.018949 1.399998
v -0.999990 -1.018949 1.399998
v -0.999990 0.581051 1.399998
v -0.999990 0.581051 -1.400002
v -0.999990 -1.018949 -1.400002
v -0.999990 -1.018949 1.399998
v 3.000010 0.581051 -1.400002
v 3.000010 0.581051 1.399998
v 3.000010 -1.018949 1.399998
v 3.000010 -1.018949 -1.400002
v 3.000010 0.581051 1.399998
v 2.000010 0.581051 1.399998
v 2.000010 -1.018949 1.399998
v 3.000010 -1.018949 1.399998
v 2.000010 0.581051 -1.400002
v 3.000010 0.581051 -1.400002
v 3.000010 -1.018949 -1.400002
v 2.000010 -1.018949 -1.400002
v 2.000010 -1.018949 -1.400002
v 3.000010 -1.018949 -1.400002
v 3.000010 -1.018949 1.399998
v 2.000010 -1.018949 1.399998
v 2.000010 0.581051 1.399998
v 2.000010 0.581051 -1.400002
v 2.000010 -1.018949 -1.400002
v 2.000010 -1.018949 1.399998
v -1.999990 0.581051 -1.400002
v -1.999990 0.581051 1.399998
v -1.999990 -1.018949 1.399998
v -1.999990 -1.018949 -1.400002
v -1.999990 0.581051 1.399998
v -2.999990 0.581051 1.399998
v -2.999990 -1.018949 1.399998
v -1.999990 -1.018949 1.399998
v -2.999990 0.581051 -1.400002
v -1.999990 0.581051 -1.400002
v -1.999990 -1.018949 -1.400002
v -2.999990 -1.018949 -1.400002
v -2.999990 -1.018949 -1.400002
v -1.999990 -1.018949 -1.400002
v -1.999990 -1.018949 1.399998
v -2.999990 -1.018949 1.399998
v -2.999990 0.581051 1.399998
v -2.999990 0.581051 -1.400002
v -2.999990 -1.018949 -1.400002
v -2.999990 -1.018949 1.399998
v 3.000010 0.381051 -1.000002
v 3.400010 0.381051 -0.600002
v 3.400010 -0.818949 -0.600002
v 3.000010 -0.818949 -1.000002
v 3.000010 0.381051 -1.000002
v 3.000010 0.381051 -0.600002
v 3.400010 0.381051 -0.600002
v 3.000010 -0.818949 -0.600002
v 3.000010 -0.818949 -1.000002
v 3.400010 -0.818949 -0.600002
v 3.400010 0.381051 0.599998
v 3.000010 0.381051 0.999998
v 3.000010 -0.818949 0.999998
v 3.400010 -0.818949 0.599998
v 3.400010 0.381051 0.599998
v 3.000010 0.381051 0.599998
v 3.000010 0.381051 0.999998
v 3.000010 -0.818949 0.599998
v 3.400010 -0.818949 0.599998
v 3.000010 -0.818949 0.999998
v 3.000010 0.581051 -0.600002
v 3.000010 0.381051 -0.600002
v 3.400010 0.381051 -0.600002
v 3.000010 0.381051 -1.000002
v 3.000010 0.581051 -0.600002
v 3.400010 0.381051 -0.600002
v 3.000010 0.381051 -0.600002
v 3.000010 0.381051 -1.000002
v 3.400010 0.381051 -0.600002
v 3.400010 0.381051 0.599998
v 3.000010 0.381051 0.599998
v 3.000010 0.581051 0.599998
v 3.400010 0.381051 0.599998
v 3.000010 0.581051 0.599998
v 3.000010 0.381051 0.999998
v 3.000010 0.381051 0.599998
v 3.400010 0.381051 0.599998
v 3.000010 0.381051 0.999998
v 3.400010 0.381051 -0.600002
v 3.000010 0.581051 -0.600002
v 3.000010 0.581051 0.599998
v 3.400010 0.381051 0.599998
v 3.400010 0.381051 -0.600002
v 3.000010 0.381051 -0.600002
v 3.000010 0.581051 -0.600002
v 3.000010 0.381051 0.599998
v 3.400010 0.381051 0.599998
v 3.000010 0.581051 0.599998
v 3.400010 0.381051 -0.600002
v 3.400010 0.381051 0.599998
v 3.400010 -0.818949 0.599998
v 3.400010 -0.818949 -0.600002
v 3.400010 -0.818949 -0.600002
v 3.400010 -0.818949 0.599998
v 3.400010 -1.018949 0.599998
v 3.400010 -1.018949 -0.600002
v 3.000010 -1.018949 0.599998
v 3.000010 -1.018949 -0.600002
v 3.400010 -1.018949 -0.600002
v 3.400010 -1.018949 0.599998
v 3.000010 -0.818949 -1.000002
v 3.400010 -0.818949 -0.600002
v 3.400010 -1.018949 -0.600002
v 3.000010 -1.018949 -1.000002
v 3.000010 -0.818949 -1.000002
v 3.000010 -0.818949 -0.600002
v 3.400010 -0.818949 -0.600002
v 3.000010 -1.018949 -0.600002
v 3.000010 -1.018949 -1.000002
v 3.400010 -1.018949 -0.600002
v 3.400010 -0.818949 0.599998
v 3.000010 -0.818949 0.999998
v 3.000010 -1.018949 0.999998
v 3.400010 -1.018949 0.599998
v 3.400010 -0.818949 0.599998
v 3.000010 -0.818949 0.599998
v 3.000010 -0.818949 0.999998
v 3.000010 -1.018949 0.599998
v 3.400010 -1.018949 0.599998
v 3.000010 -1.018949 0.999998
vt 0.900380 0.449758
vt 0.900380 0.622410
vt 0.865850 0.622410
vt 0.865850 0.449758
vt 0.600011 0.193888
vt 0.575595 0.218305
vt 0.600011 0.242721
vt 0.842514 0.660984
vt 0.866931 0.636568
vt 0.866931 0.685401
vt 0.616195 0.262949
vt 0.616195 0.504662
vt 0.702521 0.504662
vt 0.702521 0.262949
vt 0.910639 0.193888
vt 0.886222 0.218305
vt 0.910639 0.242721
vt 0.693198 0.975656
vt 0.658668 0.975656
vt 0.693198 0.941126
vt 0.145200 0.262949
vt 0.007079 0.262949
vt 0.007079 0.504662
vt 0.145200 0.504662
vt 0.848584 0.975656
vt 0.883115 0.975656
vt 0.883115 0.941126
vt 0.498446 0.218305
vt 0.522863 0.193888
vt 0.522863 0.242721
vt 0.983598 0.138985
vt 0.966333 0.138985
vt 0.966333 0.104455
vt 0.983598 0.104455
vt 0.980490 0.941126
vt 0.980490 0.975656
vt 0.945960 0.975656
vt 0.983598 0.740159
vt 0.983598 0.705628
vt 0.949068 0.740159
vt 0.834427 0.823377
vt 0.834427 0.926968
vt 0.799897 0.926968
vt 0.799897 0.823377
vt 0.949068 0.803004
vt 0.983598 0.803004
vt 0.983598 0.837534
vt 0.691317 0.218305
vt 0.715734 0.242721
vt 0.715734 0.193888
vt 0.978668 0.262949
vt 0.963225 0.270670
vt 0.978668 0.301555
vt 0.980490 0.598930
vt 0.980490 0.633460
vt 0.945960 0.633460
vt 0.980490 0.682148
vt 0.980490 0.647617
vt 0.945960 0.682148
vt 0.964510 0.890298
vt 0.949068 0.859413
vt 0.964510 0.851692
vt 0.949068 0.754316
vt 0.983598 0.754316
vt 0.983598 0.788846
vt 0.652743 0.218305
vt 0.677160 0.242721
vt 0.677160 0.193888
vt 0.644510 0.823377
vt 0.644510 0.926968
vt 0.609980 0.926968
vt 0.609980 0.823377
vt 0.896531 0.675174
vt 0.881088 0.644289
vt 0.896531 0.636568
vt 0.024344 0.992921
vt 0.024344 0.958391
vt 0.007079 0.992921
vt 0.685256 0.823377
vt 0.667990 0.823377
vt 0.667990 0.926968
vt 0.685256 0.926968
vt 0.748101 0.926968
vt 0.782631 0.926968
vt 0.782631 0.823377
vt 0.748101 0.823377
vt 0.931803 0.553350
vt 0.914537 0.553350
vt 0.914537 0.449758
vt 0.931803 0.449758
vt 0.741886 0.941126
vt 0.741886 0.975656
vt 0.707356 0.975656
vt 0.834427 0.975656
vt 0.834427 0.941126
vt 0.799897 0.975656
vt 0.848584 0.823377
vt 0.848584 0.926968
vt 0.883115 0.926968
vt 0.883115 0.823377
vt 0.789783 0.685401
vt 0.765366 0.660984
vt 0.789783 0.636568
vt 0.729891 0.218305
vt 0.754308 0.242721
vt 0.754308 0.193888
vt 0.931803 0.567507
vt 0.914537 0.567507
vt 0.914537 0.653833
vt 0.931803 0.653833
vt 0.564399 0.518819
vt 0.564399 0.691471
vt 0.650725 0.691471
vt 0.650725 0.518819
vt 0.963225 0.536084
vt 0.945960 0.536084
vt 0.945960 0.449758
vt 0.963225 0.449758
vt 0.952175 0.107562
vt 0.934910 0.107562
vt 0.934910 0.193888
vt 0.952175 0.193888
vt 0.463916 0.518819
vt 0.463916 0.691471
vt 0.550242 0.691471
vt 0.550242 0.518819
vt 0.920753 0.007079
vt 0.886223 0.007079
vt 0.886223 0.179731
vt 0.920753 0.179731
vt 0.671098 0.007079
vt 0.671098 0.179731
vt 0.498446 0.179731
vt 0.498446 0.007079
vt 0.934910 0.878280
vt 0.900380 0.878280
vt 0.900380 0.705628
vt 0.934910 0.705628
vt 0.851692 0.435601
vt 0.851692 0.262949
vt 0.817162 0.262949
vt 0.817162 0.435601
vt 0.949068 0.262949
vt 0.914537 0.262949
vt 0.914537 0.435601
vt 0.949068 0.435601
vt 0.980490 0.550242
vt 0.980490 0.584772
vt 0.945960 0.584772
vt 0.931803 0.975656
vt 0.931803 0.941126
vt 0.897272 0.975656
vt 0.771582 0.007079
vt 0.771582 0.179731
vt 0.685256 0.179731
vt 0.685256 0.007079
vt 0.449758 0.691471
vt 0.415228 0.691471
vt 0.415228 0.518819
vt 0.449758 0.518819
vt 0.153142 0.857907
vt 0.153142 0.944233
vt 0.187673 0.944233
vt 0.187673 0.857907
vt 0.785739 0.705628
vt 0.785739 0.809220
vt 0.699413 0.809220
vt 0.699413 0.705628
vt 0.443543 0.941126
vt 0.443543 0.975656
vt 0.409012 0.975656
vt 0.803940 0.660984
vt 0.828357 0.685401
vt 0.828357 0.636568
vt 0.751209 0.518819
vt 0.751209 0.691471
vt 0.664883 0.691471
vt 0.664883 0.518819
vt 0.449758 0.878280
vt 0.415228 0.878280
vt 0.415228 0.705628
vt 0.449758 0.705628
vt 0.090297 0.944233
vt 0.090297 0.857907
vt 0.055767 0.857907
vt 0.055767 0.944233
vt 0.602037 0.262949
vt 0.463916 0.262949
vt 0.463916 0.504662
vt 0.602037 0.504662
vt 0.638586 0.242721
vt 0.614169 0.218305
vt 0.638586 0.193888
vt 0.814054 0.477137
vt 0.838471 0.501554
vt 0.838471 0.452721
vt 0.397963 0.774689
vt 0.397963 0.878280
vt 0.311637 0.878280
vt 0.311637 0.774689
vt 0.785739 0.124827
vt 0.785739 0.228419
vt 0.872065 0.228419
vt 0.872065 0.124827
vt 0.138985 0.857908
vt 0.138985 0.944234
vt 0.104454 0.944234
vt 0.104454 0.857908
vt 0.716679 0.501554
vt 0.716679 0.415228
vt 0.751209 0.415228
vt 0.751209 0.501554
vt 0.463916 0.823377
vt 0.463916 0.926968
vt 0.498446 0.926968
vt 0.498446 0.823377
vt 0.966333 0.159358
vt 0.983598 0.159358
vt 0.983598 0.193888
vt 0.966333 0.193888
vt 0.785739 0.007079
vt 0.785739 0.110670
vt 0.872065 0.110670
vt 0.872065 0.007079
vt 0.851692 0.518819
vt 0.851692 0.622410
vt 0.765366 0.622410
vt 0.765366 0.518819
vt 0.007079 0.944233
vt 0.007079 0.857907
vt 0.041609 0.857907
vt 0.041609 0.944233
vt 0.332010 0.248791
vt 0.193888 0.248791
vt 0.193888 0.007079
vt 0.332010 0.007079
vt 0.145200 0.691471
vt 0.007079 0.691471
vt 0.007079 0.518819
vt 0.145200 0.518819
vt 0.297479 0.518819
vt 0.159358 0.518819
vt 0.159358 0.691471
vt 0.297479 0.691471
vt 0.007079 0.007079
vt 0.007079 0.248791
vt 0.179731 0.248791
vt 0.179731 0.007079
vt 0.193888 0.705629
vt 0.193888 0.843750
vt 0.107562 0.843750
vt 0.107562 0.705629
vt 0.311637 0.518819
vt 0.311637 0.760532
vt 0.397963 0.760532
vt 0.397963 0.518819
vt 0.685256 0.809220
vt 0.581665 0.809220
vt 0.581665 0.705628
vt 0.685256 0.705628
vt 0.208046 0.705628
vt 0.208046 0.843750
vt 0.294371 0.843750
vt 0.294371 0.705629
vt 0.093405 0.705628
vt 0.093405 0.843750
vt 0.007079 0.843750
vt 0.007079 0.705628
vt 0.799897 0.415228
vt 0.799897 0.501554
vt 0.765366 0.501554
vt 0.765366 0.415228
vt 0.699413 0.926968
vt 0.699413 0.823377
vt 0.733944 0.823377
vt 0.733944 0.926968
vt 0.567507 0.705628
vt 0.463916 0.705628
vt 0.463916 0.809220
vt 0.567507 0.809220
vt 0.716679 0.262949
vt 0.716678 0.401071
vt 0.803004 0.401071
vt 0.803004 0.262949
vt 0.484289 0.248791
vt 0.346167 0.248791
vt 0.346167 0.007079
vt 0.484289 0.007079
vt 0.547134 0.823377
vt 0.512604 0.823377
vt 0.512604 0.926968
vt 0.547134 0.926968
vt 0.990750 0.208191
vt 0.973484 0.208191
vt 0.973484 0.242721
vt 0.990750 0.242721
vt 0.242576 0.857907
vt 0.242576 0.944233
vt 0.208046 0.944233
vt 0.208046 0.857907
vt 0.394855 0.926968
vt 0.360325 0.926968
vt 0.360325 0.892438
vt 0.415228 0.926968
vt 0.449758 0.926968
vt 0.415228 0.892438
vt 0.595822 0.823377
vt 0.595822 0.926968
vt 0.561292 0.926968
vt 0.561292 0.823377
vt 0.644510 0.941126
vt 0.644510 0.975656
vt 0.609979 0.975656
vt 0.346167 0.975656
vt 0.346167 0.941126
vt 0.311637 0.975656
vt 0.963225 0.364401
vt 0.980490 0.364401
vt 0.980490 0.398931
vt 0.934910 0.926968
vt 0.900380 0.926968
vt 0.900380 0.892438
vt 0.924797 0.242721
vt 0.959327 0.242721
vt 0.924797 0.208191
vt 0.785739 0.975656
vt 0.785739 0.941126
vt 0.768474 0.941126
vt 0.394855 0.941126
vt 0.394855 0.975656
vt 0.360325 0.975656
vt 0.547134 0.975656
vt 0.547134 0.941126
vt 0.512604 0.975656
vt 0.900380 0.262949
vt 0.865850 0.262949
vt 0.865850 0.435601
vt 0.900380 0.435601
vt 0.963225 0.315713
vt 0.963225 0.350243
vt 0.980490 0.350243
vt 0.983598 0.007079
vt 0.983598 0.041609
vt 0.966333 0.007079
vt 0.449758 0.262949
vt 0.311637 0.262949
vt 0.311637 0.504662
vt 0.449758 0.504662
vt 0.966333 0.090297
vt 0.983598 0.090297
vt 0.983598 0.055767
vt 0.966333 0.055767
vt 0.297479 0.504662
vt 0.159358 0.504662
vt 0.159358 0.262949
vt 0.297479 0.262949
vt 0.952175 0.093405
vt 0.934910 0.093405
vt 0.934910 0.007079
vt 0.952175 0.007079
vt 0.561437 0.242722
vt 0.537021 0.218305
vt 0.561437 0.193888
vt 0.311637 0.926968
vt 0.346167 0.926968
vt 0.311637 0.892438
vt 0.886222 0.705628
vt 0.886222 0.809220
vt 0.799897 0.809220
vt 0.799897 0.705628
vt 0.595822 0.941126
vt 0.595822 0.975656
vt 0.561292 0.975656
vt 0.498446 0.975656
vt 0.498446 0.941126
vt 0.463916 0.975656
vt 0.256733 0.944233
vt 0.256733 0.857908
vt 0.291264 0.857908
vt 0.291264 0.944233
vn 0.0000 0.7071 0.7071
vn -1.0000 0.0000 0.0000
vn 1.0000 0.0000 0.0000
vn 0.0000 -1.0000 0.0000
vn -0.7071 0.0000 0.7071
vn 0.0000 1.0000 0.0000
vn 0.0000 0.0000 -1.0000
vn -0.4082 0.8165 0.4082
vn 0.0000 0.0000 1.0000
vn -0.4082 0.8165 -0.4082
vn 0.7071 0.0000 0.7071
vn -0.7071 0.0000 -0.7071
vn 0.0000 0.7071 -0.7071
vn 0.0000 0.8944 0.4472
vn 0.0000 0.8944 -0.4472
vn 0.7071 0.0000 -0.7071
vn -0.4472 0.8944 0.0000
vn 0.4472 0.8944 0.0000
vn 0.4082 0.8165 -0.4082
vn 0.4082 0.8165 0.4082
usemtl Material.001
s off
f 24/1/1 21/2/1 22/3/1 23/4/1
f 5/5/2 6/6/2 7/7/2
f 8/8/3 9/9/3 10/10/3
f 296/11/4 293/12/4 294/13/4 295/14/4
f 15/15/2 16/16/2 17/17/2
f 18/18/3 19/19/3 20/20/3
f 280/21/2 277/22/2 278/23/2 279/24/2
f 25/25/2 26/26/2 27/27/2
f 28/28/3 29/29/3 30/30/3
f 94/31/5 91/32/5 92/33/5 93/34/5
f 35/35/6 36/36/6 37/37/6
f 38/38/4 39/39/4 40/40/4
f 34/41/5 31/42/5 32/43/5 33/44/5
f 45/45/6 46/46/6 47/47/6
f 48/48/4 49/49/4 50/50/4
f 51/51/7 52/52/7 53/53/7
f 54/54/8 55/55/8 56/56/8
f 57/57/4 58/58/4 59/59/4
f 60/60/9 61/61/9 62/62/9
f 63/63/10 64/64/10 65/65/10
f 66/66/4 67/67/4 68/68/4
f 314/69/11 311/70/11 312/71/11 313/72/11
f 73/73/9 74/74/9 75/75/9
f 76/76/7 77/77/7 78/78/7
f 86/79/2 83/80/2 84/81/2 85/82/2
f 90/83/4 87/84/4 88/85/4 89/86/4
f 356/87/3 353/88/3 354/89/3 355/90/3
f 95/91/6 96/92/6 97/93/6
f 98/94/4 99/95/4 100/96/4
f 44/97/12 41/98/12 42/99/12 43/100/12
f 105/101/6 106/102/6 107/103/6
f 108/104/4 109/105/4 110/106/4
f 118/107/7 115/108/7 116/109/7 117/110/7
f 122/111/4 119/112/4 120/113/4 121/114/4
f 126/115/9 123/116/9 124/117/9 125/118/9
f 130/119/7 127/120/7 128/121/7 129/122/7
f 134/123/4 131/124/4 132/125/4 133/126/4
f 138/127/2 135/128/2 136/129/2 137/130/2
f 142/131/6 139/132/6 140/133/6 141/134/6
f 146/135/3 143/136/3 144/137/3 145/138/3
f 150/139/13 147/140/13 148/141/13 149/142/13
f 182/143/2 179/144/2 180/145/2 181/146/2
f 151/147/3 152/148/3 153/149/3
f 154/150/2 155/151/2 156/152/2
f 164/153/6 161/154/6 162/155/6 163/156/6
f 168/157/3 165/158/3 166/159/3 167/160/3
f 172/161/13 169/162/13 170/163/13 171/164/13
f 204/165/6 201/166/6 202/167/6 203/168/6
f 173/169/3 174/170/3 175/171/3
f 176/172/2 177/173/2 178/174/2
f 186/175/6 183/176/6 184/177/6 185/178/6
f 190/179/3 187/180/3 188/181/3 189/182/3
f 194/183/13 191/184/13 192/185/13 193/186/13
f 300/187/2 297/188/2 298/189/2 299/190/2
f 195/191/3 196/192/3 197/193/3
f 198/194/2 199/195/2 200/196/2
f 208/197/9 205/198/9 206/199/9 207/200/9
f 212/201/7 209/202/7 210/203/7 211/204/7
f 216/205/14 213/206/14 214/207/14 215/208/14
f 220/209/15 217/210/15 218/211/15 219/212/15
f 304/213/16 301/214/16 302/215/16 303/216/16
f 374/217/11 371/218/11 372/219/11 373/220/11
f 232/221/7 229/222/7 230/223/7 231/224/7
f 236/225/6 233/226/6 234/227/6 235/228/6
f 240/229/15 237/230/15 238/231/15 239/232/15
f 244/233/3 241/234/3 242/235/3 243/236/3
f 248/237/9 245/238/9 246/239/9 247/240/9
f 252/241/7 249/242/7 250/243/7 251/244/7
f 256/245/4 253/246/4 254/247/4 255/248/4
f 268/249/9 265/250/9 266/251/9 267/252/9
f 276/253/4 273/254/4 274/255/4 275/256/4
f 352/257/3 349/258/3 350/259/3 351/260/3
f 272/261/7 269/262/7 270/263/7 271/264/7
f 288/265/9 285/266/9 286/267/9 287/268/9
f 14/269/1 11/270/1 12/271/1 13/272/1
f 72/273/17 69/274/17 70/275/17 71/276/17
f 82/277/2 79/278/2 80/279/2 81/280/2
f 292/281/7 289/282/7 290/283/7 291/284/7
f 264/285/3 261/286/3 262/287/3 263/288/3
f 360/289/4 357/290/4 358/291/4 359/292/4
f 104/293/12 101/294/12 102/295/12 103/296/12
f 224/297/14 221/298/14 222/299/14 223/300/14
f 305/301/6 306/302/6 307/303/6
f 308/304/4 309/305/4 310/306/4
f 342/307/18 339/308/18 340/309/18 341/310/18
f 315/311/6 316/312/6 317/313/6
f 318/314/4 319/315/4 320/316/4
f 321/317/9 322/318/9 323/319/9
f 324/320/19 325/321/19 326/322/19
f 327/323/4 328/324/4 329/325/4
f 330/326/7 331/327/7 332/328/7
f 333/329/20 334/330/20 335/331/20
f 336/332/4 337/333/4 338/334/4
f 160/335/2 157/336/2 158/337/2 159/338/2
f 343/339/7 344/340/7 345/341/7
f 346/342/9 347/343/9 348/344/9
f 260/345/2 257/346/2 258/347/2 259/348/2
f 364/349/16 361/350/16 362/351/16 363/352/16
f 284/353/3 281/354/3 282/355/3 283/356/3
f 114/357/9 111/358/9 112/359/9 113/360/9
f 365/361/6 366/362/6 367/363/6
f 368/364/4 369/365/4 370/366/4
f 228/367/9 225/368/9 226/369/9 227/370/9
f 375/371/6 376/372/6 377/373/6
f 378/374/4 379/375/4 380/376/4
f 4/377/1 1/378/1 2/379/1 3/380/1
