# Blender v2.92.0 OBJ File: 'CliffFlat.blend'
# www.blender.org
mtllib CliffFlat.mtl
o BMC_Plastic_Bevel_5.003
v 4.000000 2.200000 4.000000
v -4.000000 2.200000 4.000000
v -4.000000 1.800000 4.000000
v 4.000000 1.800000 4.000000
v -4.000000 2.200000 4.000000
v -4.000000 2.200000 -4.000000
v -4.000000 1.800000 -4.000000
v -4.000000 1.800000 4.000000
v 4.000000 2.200000 -4.000000
v 4.000000 2.200000 4.000000
v 4.000000 1.800000 4.000000
v 4.000000 1.800000 -4.000000
v 4.000000 1.800000 -4.000000
v 4.000000 1.800000 4.000000
v -4.000000 1.800000 4.000000
v -4.000000 1.800000 -4.000000
v -4.000000 2.200000 -4.000000
v -4.000000 2.200000 4.000000
v 4.000000 2.200000 4.000000
v 4.000000 2.200000 -4.000000
v -4.000000 2.200000 -4.000000
v 4.000000 2.200000 -4.000000
v 4.000000 1.800000 -4.000000
v -4.000000 1.800000 -4.000000
vt 0.983887 1.085938
vt 0.016113 1.085938
vt 0.016113 -0.085938
vt 0.983887 -0.085938
vt 0.983887 1.085938
vt 0.016113 1.085938
vt 0.016113 -0.085938
vt 0.983887 -0.085938
vt 0.983887 1.085938
vt 0.016113 1.085938
vt 0.016113 -0.085938
vt 0.983887 -0.085938
vt 0.983887 0.983887
vt 0.016113 0.983887
vt 0.016113 0.016113
vt 0.983887 0.016113
vt 0.983887 0.983887
vt 0.016113 0.983887
vt 0.016113 0.016113
vt 0.983887 0.016113
vt 0.983887 1.085938
vt 0.016113 1.085938
vt 0.016113 -0.085938
vt 0.983887 -0.085938
vn 0.0000 0.0000 1.0000
vn -1.0000 0.0000 0.0000
vn 1.0000 0.0000 0.0000
vn 0.0000 -1.0000 0.0000
vn 0.0000 1.0000 0.0000
vn 0.0000 0.0000 -1.0000
usemtl BMC_Plastic_Bevel_5.003
s off
f 1/1/1 2/2/1 3/3/1
f 4/4/1 1/1/1 3/3/1
f 5/5/2 6/6/2 7/7/2
f 8/8/2 5/5/2 7/7/2
f 9/9/3 10/10/3 11/11/3
f 12/12/3 9/9/3 11/11/3
f 13/13/4 14/14/4 15/15/4
f 16/16/4 13/13/4 15/15/4
f 17/17/5 18/18/5 19/19/5
f 20/20/5 17/17/5 19/19/5
f 21/21/6 22/22/6 23/23/6
f 24/24/6 21/21/6 23/23/6
