# Blender v2.92.0 OBJ File: 'HoverTankTurret.blend'
# www.blender.org
mtllib HoverTankTurret.mtl
o BMC_Plastic_Bevel_5.001
v 0.200001 0.270001 0.221413
v 0.200001 0.270001 1.621412
v 0.200001 -0.129999 1.621412
v 0.200001 -0.129999 0.221413
v -0.199999 0.270001 1.621412
v -0.199999 0.270001 0.221413
v -0.199999 -0.129999 0.221413
v -0.199999 -0.129999 1.621412
v -0.199999 -0.129999 1.621412
v -0.199999 -0.129999 0.221413
v 0.200001 -0.129999 0.221413
v 0.200001 -0.129999 1.621412
v 0.200001 0.270001 1.621412
v 0.200001 0.270001 0.221413
v -0.199999 0.270001 0.221413
v -0.199999 0.270001 1.621412
v 0.200001 0.270001 1.621412
v -0.199999 0.270001 1.621412
v -0.199999 -0.129999 1.621412
v 0.200001 -0.129999 1.621412
v -0.199999 0.270001 0.221413
v -0.199999 0.070001 0.221413
v -0.599999 0.070001 0.221413
v -0.199999 0.070001 0.821413
v -0.199999 0.270001 0.221413
v -0.599999 0.070001 0.221413
v -0.199999 0.070001 0.221413
v -0.199999 0.070001 0.821413
v -0.599999 0.070001 0.221413
v -0.199999 0.070001 0.821413
v -0.599999 0.070001 0.221413
v -0.599999 -0.129999 0.221413
v -0.199999 -0.129999 0.821413
v -0.199999 0.070001 0.821413
v -0.199999 0.070001 0.221413
v -0.599999 0.070001 0.221413
v -0.199999 -0.129999 0.221413
v -0.199999 -0.129999 0.821413
v -0.599999 -0.129999 0.221413
v -0.400000 -0.129999 0.221413
v -0.400000 -0.129999 -0.178587
v -0.400000 -0.329999 -0.178587
v -0.400000 -0.329999 0.221413
v -0.199999 -0.129999 -0.378588
v 0.200001 -0.129999 -0.378588
v 0.200001 -0.329999 -0.378588
v -0.199999 -0.329999 -0.378588
v 0.200001 -0.129999 0.421413
v -0.199999 -0.129999 0.421413
v -0.199999 -0.329999 0.421413
v 0.200001 -0.329999 0.421413
v -0.199999 -0.129999 0.421413
v -0.400000 -0.129999 0.221413
v -0.400000 -0.329999 0.221413
v -0.199999 -0.329999 0.421413
v -0.199999 -0.129999 0.421413
v -0.199999 -0.129999 0.221413
v -0.400000 -0.129999 0.221413
v 0.600000 0.070001 0.221413
v 0.200001 0.070001 0.221413
v 0.200001 0.270001 0.221413
v 0.600000 0.070001 0.221413
v 0.200001 0.270001 0.221413
v 0.200001 0.070001 0.821413
v 0.200001 0.070001 0.221413
v 0.600000 0.070001 0.221413
v 0.200001 0.070001 0.821413
v 0.600000 0.070001 0.221413
v 0.200001 0.070001 0.821413
v 0.200001 -0.129999 0.821413
v 0.600000 -0.129999 0.221413
v 0.600000 0.070001 0.221413
v 0.200001 0.070001 0.221413
v 0.200001 0.070001 0.821413
v 0.200001 -0.129999 0.221413
v 0.600000 -0.129999 0.221413
v 0.200001 -0.129999 0.821413
v 0.400001 -0.129999 -0.178587
v 0.400001 -0.129999 0.221413
v 0.400001 -0.329999 0.221413
v 0.400001 -0.329999 -0.178587
v 0.400001 -0.129999 0.221413
v 0.200001 -0.129999 0.421413
v 0.200001 -0.329999 0.421413
v 0.400001 -0.329999 0.221413
v 0.400001 -0.129999 0.221413
v 0.200001 -0.129999 0.221413
v 0.200001 -0.129999 0.421413
v -0.199999 0.070001 -0.978588
v 0.200001 0.070001 -0.978588
v 0.200001 -0.129999 -0.978588
v -0.199999 -0.129999 -0.978588
v 0.200001 0.070001 -0.978588
v 0.200001 0.070001 -0.578587
v 0.200001 -0.129999 -0.578587
v 0.200001 -0.129999 -0.978588
v -0.199999 0.070001 -0.578587
v -0.199999 0.070001 -0.978588
v -0.199999 -0.129999 -0.978588
v -0.199999 -0.129999 -0.578587
v -0.199999 -0.129999 -0.578587
v -0.199999 -0.129999 -0.978588
v 0.200001 -0.129999 -0.978588
v 0.200001 -0.129999 -0.578587
v 0.200001 0.270001 -0.978588
v 0.200001 0.270001 0.221413
v 0.200001 0.070001 0.221413
v 0.200001 0.070001 -0.978588
v -0.199999 0.270001 -0.978588
v 0.200001 0.270001 -0.978588
v 0.200001 0.070001 -0.978588
v -0.199999 0.070001 -0.978588
v -0.199999 0.270001 0.221413
v 0.200001 0.270001 0.221413
v 0.200001 0.270001 -0.978588
v -0.199999 0.270001 -0.978588
v -0.199999 0.270001 0.221413
v -0.199999 0.270001 -0.978588
v -0.199999 0.070001 -0.978588
v -0.199999 0.070001 0.221413
v -0.599999 0.070001 -0.578587
v -0.199999 0.070001 -0.778587
v -0.199999 -0.129999 -0.778587
v -0.599999 -0.129999 -0.578587
v -0.599999 0.070001 -0.578587
v -0.199999 0.070001 -0.578587
v -0.199999 0.070001 -0.778587
v -0.199999 -0.129999 -0.578587
v -0.599999 -0.129999 -0.578587
v -0.199999 -0.129999 -0.778587
v 0.600000 0.070001 -0.578587
v 0.600000 0.070001 0.221413
v 0.600000 -0.129999 0.221413
v 0.600000 -0.129999 -0.578587
v -0.599999 -0.129999 -0.578587
v 0.600000 -0.129999 -0.578587
v 0.600000 -0.129999 0.221413
v -0.599999 -0.129999 0.221413
v -0.599999 0.070001 0.221413
v -0.599999 0.070001 -0.578587
v -0.599999 -0.129999 -0.578587
v -0.599999 -0.129999 0.221413
v -0.599999 0.070001 0.221413
v -0.199999 0.270001 0.221413
v -0.199999 0.270001 -0.578587
v -0.599999 0.070001 -0.578587
v -0.599999 0.070001 0.221413
v -0.199999 0.070001 0.221413
v -0.199999 0.270001 0.221413
v -0.199999 0.070001 -0.578587
v -0.599999 0.070001 -0.578587
v -0.199999 0.270001 -0.578587
v -0.400000 -0.129999 -0.178587
v -0.199999 -0.129999 -0.378588
v -0.199999 -0.329999 -0.378588
v -0.400000 -0.329999 -0.178587
v 0.200001 0.070001 -0.778587
v 0.600000 0.070001 -0.578587
v 0.600000 -0.129999 -0.578587
v 0.200001 -0.129999 -0.778587
v 0.200001 0.070001 -0.778587
v 0.200001 0.070001 -0.578587
v 0.600000 0.070001 -0.578587
v 0.200001 -0.129999 -0.578587
v 0.200001 -0.129999 -0.778587
v 0.600000 -0.129999 -0.578587
v 0.600000 0.070001 -0.578587
v 0.200001 0.270001 -0.578587
v 0.200001 0.270001 0.221413
v 0.600000 0.070001 0.221413
v 0.600000 0.070001 -0.578587
v 0.200001 0.070001 -0.578587
v 0.200001 0.270001 -0.578587
v 0.200001 0.070001 0.221413
v 0.600000 0.070001 0.221413
v 0.200001 0.270001 0.221413
v 0.200001 -0.129999 -0.378588
v 0.400001 -0.129999 -0.178587
v 0.400001 -0.329999 -0.178587
v 0.200001 -0.329999 -0.378588
v 0.100000 0.270001 1.621412
v 0.100000 0.270001 2.421413
v 0.100000 -0.129999 2.421413
v 0.100000 -0.129999 1.621412
v -0.099999 0.270001 2.421413
v -0.099999 0.270001 1.621412
v -0.099999 -0.129999 1.621412
v -0.099999 -0.129999 2.421413
v -0.099999 -0.129999 2.421413
v -0.099999 -0.129999 1.621412
v 0.100000 -0.129999 1.621412
v 0.100000 -0.129999 2.421413
v 0.100000 0.270001 2.421413
v 0.100000 0.270001 1.621412
v -0.099999 0.270001 1.621412
v -0.099999 0.270001 2.421413
v 0.100000 0.270001 2.421413
v -0.099999 0.270001 2.421413
v -0.099999 -0.129999 2.421413
v 0.100000 -0.129999 2.421413
vt 1.008789 -0.085938
vt 1.008789 1.085938
vt -0.009201 1.085938
vt -0.009201 -0.085938
vt 1.008789 -0.085938
vt 1.008789 1.085938
vt -0.009201 1.085938
vt -0.009201 -0.085938
vt 1.008789 -0.085938
vt 1.008789 1.085938
vt -0.009201 1.085938
vt -0.009201 -0.085938
vt 1.008789 -0.085938
vt 1.008789 1.085938
vt -0.009201 1.085938
vt -0.009201 -0.085938
vt 1.085938 -0.085938
vt 1.085938 1.085938
vt -0.085938 1.085938
vt -0.085938 -0.085938
vt -0.085938 1.193359
vt -0.085938 -0.193359
vt 1.085938 -0.193359
vt -0.085938 1.050110
vt -0.085938 -0.049805
vt 1.085938 1.050110
vt -0.085938 1.050110
vt -0.085938 -0.049805
vt 1.085938 -0.049805
vt -0.085938 1.050110
vt -0.085938 -0.049805
vt 1.085938 1.050110
vt 1.038086 -0.193359
vt 1.038086 1.193359
vt -0.038086 1.193359
vt -0.038086 -0.193359
vt -0.193359 1.193359
vt -0.193359 -0.193359
vt 1.193359 -0.193359
vt -0.085938 -0.193359
vt 1.085938 -0.193359
vt 1.085938 1.193359
vt -0.050110 1.085938
vt -0.050110 -0.085938
vt 1.049805 1.085938
vt -0.050110 1.085938
vt -0.050110 -0.085938
vt 1.049805 -0.085938
vt -0.050110 1.085938
vt -0.050110 -0.085938
vt 1.049805 1.085938
vt -0.193359 1.193359
vt -0.193359 -0.193359
vt 1.193359 -0.193359
vt 1.013672 -0.193359
vt 1.013672 1.193359
vt -0.014320 1.193359
vt -0.014320 -0.193359
vt 1.085938 -0.193359
vt 1.085938 1.193359
vt -0.085938 1.193359
vt -0.085938 -0.193359
vt 1.085938 -0.013672
vt 1.085938 1.014320
vt -0.085938 1.014320
vt -0.085938 -0.013672
vt 1.074219 -0.193359
vt 1.074219 1.193359
vt -0.074585 1.193359
vt -0.074585 -0.193359
vt 1.129883 -0.193359
vt 1.129883 1.193359
vt -0.130371 1.193359
vt -0.130371 -0.193359
vt -0.193359 1.085938
vt -0.193359 -0.085938
vt 1.193359 -0.085938
vt -0.193359 1.085938
vt -0.193359 -0.085938
vt 1.193359 1.085938
vt 1.074219 -0.032227
vt 1.074219 1.032227
vt -0.074585 1.032227
vt -0.074585 -0.032227
vt -0.193359 1.085938
vt -0.193359 -0.085938
vt 1.193359 -0.085938
vt -0.193359 1.085938
vt -0.193359 -0.085938
vt 1.193359 1.085938
vt -0.085938 1.193359
vt -0.085938 -0.193359
vt 1.085938 -0.193359
vt -0.085938 1.193359
vt -0.085938 -0.193359
vt 1.085938 1.193359
vt -0.193359 1.085938
vt -0.193359 -0.085938
vt 1.193359 -0.085938
vt -0.193359 1.085938
vt -0.193359 -0.085938
vt 1.193359 1.085938
vt 1.038086 -0.193359
vt 1.038086 1.193359
vt -0.038086 1.193359
vt -0.038086 -0.193359
vt 1.085938 -0.193359
vt 1.085938 1.193359
vt -0.085938 1.193359
vt -0.085938 -0.193359
vt 1.129883 -0.193359
vt 1.129883 1.193359
vt -0.130371 1.193359
vt -0.130371 -0.193359
vt 1.085938 -0.193359
vt 1.085938 1.193359
vt -0.085938 1.193359
vt -0.085938 -0.193359
vt 1.085938 -0.193359
vt 1.085938 1.193359
vt -0.085938 1.193359
vt -0.085938 -0.193359
vt 1.085938 -0.085938
vt 1.085938 1.085938
vt -0.085938 1.085938
vt -0.085938 -0.085938
vt 1.032227 -0.193359
vt 1.032227 1.193359
vt -0.032227 1.193359
vt -0.032227 -0.193359
vt 1.085938 -0.193359
vt 1.085938 1.193359
vt -0.085938 1.193359
vt -0.085938 -0.193359
vt 1.074219 -0.193359
vt 1.074219 1.193359
vt -0.074585 1.193359
vt -0.074585 -0.193359
vt 1.193359 -0.085938
vt 1.193359 1.085938
vt -0.193359 1.085938
vt -0.193359 -0.085938
vt 1.085938 -0.193359
vt 1.085938 1.193359
vt -0.085938 1.193359
vt -0.085938 -0.193359
vt 1.085938 -0.193359
vt 1.085938 1.193359
vt -0.085938 1.193359
vt -0.085938 -0.193359
vt 1.032227 -0.193359
vt 1.032227 1.193359
vt -0.032227 1.193359
vt -0.032227 -0.193359
vt 1.013672 -0.032227
vt 1.013672 1.032227
vt -0.014320 1.032227
vt -0.014320 -0.032227
vt 1.032227 -0.193359
vt 1.032227 1.193359
vt -0.032227 1.193359
vt -0.032227 -0.193359
vt 1.074219 -0.032227
vt 1.074219 1.032227
vt -0.074585 1.032227
vt -0.074585 -0.032227
vt 1.032227 -0.085938
vt 1.032227 1.085938
vt -0.032227 1.085938
vt -0.032227 -0.085938
vt 1.032227 -0.085938
vt 1.032227 1.085938
vt -0.032227 1.085938
vt -0.032227 -0.085938
vt 1.032227 -0.193359
vt 1.032227 1.193359
vt -0.032227 1.193359
vt -0.032227 -0.193359
vt 1.129883 -0.193359
vt 1.129883 1.193359
vt -0.130371 1.193359
vt -0.130371 -0.193359
vt 1.129883 -0.193359
vt 1.129883 1.193359
vt -0.130371 1.193359
vt -0.130371 -0.193359
vt 1.013672 -0.193359
vt 1.013672 1.193359
vt -0.014320 1.193359
vt -0.014320 -0.193359
vt 1.085938 -0.193359
vt 1.085938 1.193359
vt -0.085938 1.193359
vt -0.085938 -0.193359
vt -0.074585 1.046448
vt -0.074585 -0.045898
vt 1.074219 -0.045898
vt -0.046448 1.074585
vt -0.046448 -0.074219
vt 1.045898 -0.074219
vn 1.0000 0.0000 0.0000
vn -1.0000 0.0000 0.0000
vn 0.0000 -1.0000 0.0000
vn 0.0000 1.0000 0.0000
vn 0.0000 0.0000 1.0000
vn 0.0000 0.0000 -1.0000
vn 0.8321 0.0000 0.5547
vn -0.4472 0.0000 -0.8944
vn -0.7071 0.0000 -0.7071
vn 0.4472 0.8944 0.0000
vn -0.8321 0.0000 0.5547
vn -0.7071 0.0000 0.7071
vn 0.4472 0.0000 -0.8944
vn -0.4472 0.8944 0.0000
vn 0.7071 0.0000 -0.7071
vn 0.7071 0.0000 0.7071
vn -0.3943 0.8806 0.2629
vn 0.3943 0.8806 0.2628
usemtl BMC_Plastic_Bevel_5
s off
f 4/1/1 1/2/1 2/3/1 3/4/1
f 8/5/2 5/6/2 6/7/2 7/8/2
f 12/9/3 9/10/3 10/11/3 11/12/3
f 16/13/4 13/14/4 14/15/4 15/16/4
f 20/17/5 17/18/5 18/19/5 19/20/5
f 21/21/6 22/22/6 23/23/6
f 27/24/3 28/25/3 29/26/3
f 34/27/4 35/28/4 36/29/4
f 37/30/3 38/31/3 39/32/3
f 71/33/7 68/34/7 69/35/7 70/36/7
f 56/37/4 57/38/4 58/39/4
f 59/40/6 60/41/6 61/42/6
f 65/43/3 66/44/3 67/45/3
f 72/46/4 73/47/4 74/48/4
f 75/49/3 76/50/3 77/51/3
f 86/52/4 87/53/4 88/54/4
f 108/55/1 105/56/1 106/57/1 107/58/1
f 112/59/6 109/60/6 110/61/6 111/62/6
f 116/63/4 113/64/4 114/65/4 115/66/4
f 124/67/8 121/68/8 122/69/8 123/70/8
f 156/71/9 153/72/9 154/73/9 155/74/9
f 125/75/4 126/76/4 127/77/4
f 128/78/3 129/79/3 130/80/3
f 170/81/10 167/82/10 168/83/10 169/84/10
f 147/85/5 148/86/5 149/87/5
f 150/88/6 151/89/6 152/90/6
f 161/91/4 162/92/4 163/93/4
f 164/94/3 165/95/3 166/96/3
f 171/97/6 172/98/6 173/99/6
f 174/100/5 175/101/5 176/102/5
f 33/103/11 30/104/11 31/105/11 32/106/11
f 51/107/5 48/108/5 49/109/5 50/110/5
f 55/111/12 52/112/12 53/113/12 54/114/12
f 92/115/6 89/116/6 90/117/6 91/118/6
f 96/119/1 93/120/1 94/121/1 95/122/1
f 104/123/3 101/124/3 102/125/3 103/126/3
f 196/127/4 193/128/4 194/129/4 195/130/4
f 43/131/2 40/132/2 41/133/2 42/134/2
f 160/135/13 157/136/13 158/137/13 159/138/13
f 200/139/5 197/140/5 198/141/5 199/142/5
f 47/143/6 44/144/6 45/145/6 46/146/6
f 81/147/1 78/148/1 79/149/1 80/150/1
f 134/151/1 131/152/1 132/153/1 133/154/1
f 138/155/3 135/156/3 136/157/3 137/158/3
f 142/159/2 139/160/2 140/161/2 141/162/2
f 146/163/14 143/164/14 144/165/14 145/166/14
f 184/167/1 181/168/1 182/169/1 183/170/1
f 188/171/2 185/172/2 186/173/2 187/174/2
f 192/175/3 189/176/3 190/177/3 191/178/3
f 180/179/15 177/180/15 178/181/15 179/182/15
f 85/183/16 82/184/16 83/185/16 84/186/16
f 120/187/2 117/188/2 118/189/2 119/190/2
f 100/191/2 97/192/2 98/193/2 99/194/2
s 1
f 24/195/17 25/196/17 26/197/17
f 62/198/18 63/199/18 64/200/18
