# Blender v2.92.0 OBJ File: 'RockWallFinal.blend'
# www.blender.org
mtllib RockWallFinal.mtl
o BMC_Plastic_Bevel_5
v -1.000274 3.201102 4.001100
v -3.000274 3.201102 4.001100
v -3.000274 1.001101 4.001100
v -1.000274 1.001101 4.001100
v -3.000274 3.201102 4.001100
v -1.000274 3.201102 4.001100
v -1.000274 3.201102 3.001100
v -3.000274 3.201102 3.001100
v -3.000274 3.201102 4.001100
v -3.000274 3.201102 3.001100
v -3.000274 1.001101 3.001100
v -3.000274 1.001101 4.001100
v -3.000274 2.801101 4.001100
v -4.000274 2.801101 4.001100
v -4.000274 1.001101 4.001100
v -3.000274 1.001101 4.001100
v -4.000274 2.801101 3.001100
v -3.000274 2.801101 3.001100
v -3.000274 1.001101 3.001100
v -4.000274 1.001101 3.001100
v -4.000274 2.801101 4.001100
v -3.000274 2.801101 4.001100
v -3.000274 2.801101 3.001100
v -4.000274 2.801101 3.001100
v -4.000274 2.801101 4.001100
v -4.000274 2.801101 3.001100
v -4.000274 1.001101 3.001100
v -4.000274 1.001101 4.001100
v 2.999726 5.601101 3.001100
v 2.999726 5.601101 4.001100
v 2.999726 1.001101 4.001100
v 2.999726 1.001101 3.001100
v 2.999726 5.601101 4.001100
v 0.999726 5.601101 4.001100
v 0.999726 1.001101 4.001100
v 2.999726 1.001101 4.001100
v 0.999726 5.601101 4.001100
v 2.999726 5.601101 4.001100
v 2.999726 5.601101 3.001100
v 0.999726 5.601101 3.001100
v 0.999726 5.601101 4.001100
v 0.999726 5.601101 3.001100
v 0.999726 1.001101 3.001100
v 0.999726 1.001101 4.001100
v 0.999726 5.001101 2.001100
v -1.000274 5.001101 2.001100
v -1.000274 1.001101 2.001100
v 0.999726 1.001101 2.001100
v -1.000274 5.001101 2.001100
v 0.999726 5.001101 2.001100
v 0.999726 5.001101 1.001100
v -1.000274 5.001101 1.001100
v -1.000274 5.001101 2.001100
v -1.000274 5.001101 1.001100
v -1.000274 1.001101 1.001100
v -1.000274 1.001101 2.001100
v 0.999726 4.601101 4.001100
v -1.000274 4.601101 4.001100
v -1.000274 1.001101 4.001100
v 0.999726 1.001101 4.001100
v -1.000274 4.601101 4.001100
v 0.999726 4.601101 4.001100
v 0.999726 4.601101 2.001100
v -1.000274 4.601101 2.001100
v -1.000274 4.601101 4.001100
v -1.000274 4.601101 2.001100
v -1.000274 1.001101 2.001100
v -1.000274 1.001101 4.001100
v -1.000274 4.801102 -1.998900
v 0.999726 4.801102 -1.998900
v 0.999726 1.001101 -1.998900
v -1.000274 1.001101 -1.998900
v -1.000274 4.801102 -0.998900
v 0.999726 4.801102 -0.998900
v 0.999726 4.801102 -1.998900
v -1.000274 4.801102 -1.998900
v -1.000274 4.801102 -0.998900
v -1.000274 4.801102 -1.998900
v -1.000274 1.001101 -1.998900
v -1.000274 1.001101 -0.998900
v -1.000274 4.401102 -3.998900
v 0.999726 4.401102 -3.998900
v 0.999726 1.001101 -3.998900
v -1.000274 1.001101 -3.998900
v -1.000274 4.401102 -1.998900
v 0.999726 4.401102 -1.998900
v 0.999726 4.401102 -3.998900
v -1.000274 4.401102 -3.998900
v -1.000274 4.401102 -1.998900
v -1.000274 4.401102 -3.998900
v -1.000274 1.001101 -3.998900
v -1.000274 1.001101 -1.998900
v -3.000274 3.001101 1.001100
v -1.000274 3.001101 1.001100
v -1.000274 3.001101 0.001100
v -3.000274 3.001101 0.001100
v -3.000274 3.001101 1.001100
v -3.000274 3.001101 0.001100
v -3.000274 1.001101 0.001100
v -3.000274 1.001101 1.001100
v -3.000274 3.401102 -3.998900
v -1.000274 3.401102 -3.998900
v -1.000274 1.001101 -3.998900
v -3.000274 1.001101 -3.998900
v -3.000274 3.401102 -1.998900
v -1.000274 3.401102 -1.998900
v -1.000274 3.401102 -3.998900
v -3.000274 3.401102 -3.998900
v -3.000274 3.401102 -1.998900
v -3.000274 3.401102 -3.998900
v -3.000274 1.001101 -3.998900
v -3.000274 1.001101 -1.998900
v -3.000274 3.001101 -0.998900
v -4.000274 3.001101 -0.998900
v -4.000274 1.001101 -0.998900
v -3.000274 1.001101 -0.998900
v -4.000274 3.001101 -2.998900
v -3.000274 3.001101 -2.998900
v -3.000274 1.001101 -2.998900
v -4.000274 1.001101 -2.998900
v -4.000274 3.001101 -0.998900
v -3.000274 3.001101 -0.998900
v -3.000274 3.001101 -2.998900
v -4.000274 3.001101 -2.998900
v -4.000274 3.001101 -0.998900
v -4.000274 3.001101 -2.998900
v -4.000274 1.001101 -2.998900
v -4.000274 1.001101 -0.998900
v -4.000274 2.401102 2.001100
v -3.000274 2.401102 2.001100
v -3.000274 1.001101 2.001100
v -4.000274 1.001101 2.001100
v -4.000274 2.401102 3.001100
v -3.000274 2.401102 3.001100
v -3.000274 2.401102 2.001100
v -4.000274 2.401102 2.001100
v -4.000274 2.401102 3.001100
v -4.000274 2.401102 2.001100
v -4.000274 1.001101 2.001100
v -4.000274 1.001101 3.001100
v 0.999726 5.201102 1.001100
v -1.000274 5.201102 1.001100
v -1.000274 1.001101 1.001100
v 0.999726 1.001101 1.001100
v -1.000274 5.201102 -0.998900
v 0.999726 5.201102 -0.998900
v 0.999726 1.001101 -0.998900
v -1.000274 1.001101 -0.998900
v -1.000274 5.201102 1.001100
v 0.999726 5.201102 1.001100
v 0.999726 5.201102 -0.998900
v -1.000274 5.201102 -0.998900
v -1.000274 5.201102 1.001100
v -1.000274 5.201102 -0.998900
v -1.000274 1.001101 -0.998900
v -1.000274 1.001101 1.001100
v -3.000274 2.801101 0.001100
v -4.000274 2.801101 0.001100
v -4.000274 1.001101 0.001100
v -3.000274 1.001101 0.001100
v -4.000274 2.801101 0.001100
v -3.000274 2.801101 0.001100
v -3.000274 2.801101 -0.998900
v -4.000274 2.801101 -0.998900
v -4.000274 2.801101 0.001100
v -4.000274 2.801101 -0.998900
v -4.000274 1.001101 -0.998900
v -4.000274 1.001101 0.001100
v -4.000274 2.201102 2.001100
v -3.000274 2.201102 2.001100
v -3.000274 2.201102 0.001100
v -4.000274 2.201102 0.001100
v -4.000274 2.201102 2.001100
v -4.000274 2.201102 0.001100
v -4.000274 1.001101 0.001100
v -4.000274 1.001101 2.001100
v -1.000274 3.801101 3.001100
v -3.000274 3.801101 3.001100
v -3.000274 1.001101 3.001100
v -1.000274 1.001101 3.001100
v -3.000274 3.801101 1.001100
v -1.000274 3.801101 1.001100
v -1.000274 1.001101 1.001100
v -3.000274 1.001101 1.001100
v -3.000274 3.801101 3.001100
v -1.000274 3.801101 3.001100
v -1.000274 3.801101 1.001100
v -3.000274 3.801101 1.001100
v -3.000274 3.801101 3.001100
v -3.000274 3.801101 1.001100
v -3.000274 1.001101 1.001100
v -3.000274 1.001101 3.001100
v -4.000274 2.601102 -3.998900
v -3.000274 2.601102 -3.998900
v -3.000274 1.001101 -3.998900
v -4.000274 1.001101 -3.998900
v -4.000274 2.601102 -2.998900
v -3.000274 2.601102 -2.998900
v -3.000274 2.601102 -3.998900
v -4.000274 2.601102 -3.998900
v -4.000274 2.601102 -2.998900
v -4.000274 2.601102 -3.998900
v -4.000274 1.001101 -3.998900
v -4.000274 1.001101 -2.998900
v -1.000274 4.001101 0.001100
v -3.000274 4.001101 0.001100
v -3.000274 1.001101 0.001100
v -1.000274 1.001101 0.001100
v -3.000274 4.001101 -1.998900
v -1.000274 4.001101 -1.998900
v -1.000274 1.001101 -1.998900
v -3.000274 1.001101 -1.998900
v -3.000274 4.001101 0.001100
v -1.000274 4.001101 0.001100
v -1.000274 4.001101 -1.998900
v -3.000274 4.001101 -1.998900
v -3.000274 4.001101 0.001100
v -3.000274 4.001101 -1.998900
v -3.000274 1.001101 -1.998900
v -3.000274 1.001101 0.001100
v 3.999726 1.001101 -3.998900
v 3.999726 1.001101 4.001100
v 3.999726 0.001101 4.001100
v 3.999726 0.001101 -3.998900
v 3.999726 1.001101 4.001100
v -4.000274 1.001101 4.001100
v -4.000274 0.001101 4.001100
v 3.999726 0.001101 4.001100
v -4.000274 1.001101 -3.998900
v 3.999726 1.001101 -3.998900
v 3.999726 0.001101 -3.998900
v -4.000274 0.001101 -3.998900
v -4.000274 0.001101 -3.998900
v 3.999726 0.001101 -3.998900
v 3.999726 0.001101 4.001100
v -4.000274 0.001101 4.001100
v -4.000274 1.001101 4.001100
v -4.000274 1.001101 -3.998900
v -4.000274 0.001101 -3.998900
v -4.000274 0.001101 4.001100
v 3.999726 5.201102 -1.998900
v 3.999726 5.201102 2.001100
v 3.999726 1.001101 2.001100
v 3.999726 1.001101 -1.998900
v 3.999726 5.201102 2.001100
v 2.999726 5.201102 2.001100
v 2.999726 1.001101 2.001100
v 3.999726 1.001101 2.001100
v 2.999726 5.201102 -1.998900
v 3.999726 5.201102 -1.998900
v 3.999726 1.001101 -1.998900
v 2.999726 1.001101 -1.998900
v 2.999726 5.201102 2.001100
v 3.999726 5.201102 2.001100
v 3.999726 5.201102 -1.998900
v 2.999726 5.201102 -1.998900
v 3.999726 4.801102 -3.998900
v 3.999726 4.801102 -1.998900
v 3.999726 1.001101 -1.998900
v 3.999726 1.001101 -3.998900
v 2.999726 4.801102 -3.998900
v 3.999726 4.801102 -3.998900
v 3.999726 1.001101 -3.998900
v 2.999726 1.001101 -3.998900
v 2.999726 4.801102 -1.998900
v 3.999726 4.801102 -1.998900
v 3.999726 4.801102 -3.998900
v 2.999726 4.801102 -3.998900
v 3.999726 5.001101 2.001100
v 3.999726 5.001101 4.001100
v 3.999726 1.001101 4.001100
v 3.999726 1.001101 2.001100
v 3.999726 5.001101 4.001100
v 2.999726 5.001101 4.001100
v 2.999726 1.001101 4.001100
v 3.999726 1.001101 4.001100
v 2.999726 5.001101 4.001100
v 3.999726 5.001101 4.001100
v 3.999726 5.001101 2.001100
v 2.999726 5.001101 2.001100
v 2.999726 5.401102 0.001100
v 2.999726 5.401102 1.001100
v 2.999726 1.001101 1.001100
v 2.999726 1.001101 0.001100
v 0.999726 5.401102 1.001100
v 2.999726 5.401102 1.001100
v 2.999726 5.401102 0.001100
v 0.999726 5.401102 0.001100
v 0.999726 5.401102 1.001100
v 0.999726 5.401102 0.001100
v 0.999726 1.001101 0.001100
v 0.999726 1.001101 1.001100
v 2.999726 5.601101 -0.998900
v 2.999726 5.601101 0.001100
v 2.999726 1.001101 0.001100
v 2.999726 1.001101 -0.998900
v 2.999726 5.601101 0.001100
v 0.999726 5.601101 0.001100
v 0.999726 1.001101 0.001100
v 2.999726 1.001101 0.001100
v 0.999726 5.601101 0.001100
v 2.999726 5.601101 0.001100
v 2.999726 5.601101 -0.998900
v 0.999726 5.601101 -0.998900
v 0.999726 5.601101 0.001100
v 0.999726 5.601101 -0.998900
v 0.999726 1.001101 -0.998900
v 0.999726 1.001101 0.001100
v 2.999726 5.801102 1.001100
v 2.999726 5.801102 3.001100
v 2.999726 1.001101 3.001100
v 2.999726 1.001101 1.001100
v 2.999726 5.801102 3.001100
v 0.999726 5.801102 3.001100
v 0.999726 1.001101 3.001100
v 2.999726 1.001101 3.001100
v 0.999726 5.801102 1.001100
v 2.999726 5.801102 1.001100
v 2.999726 1.001101 1.001100
v 0.999726 1.001101 1.001100
v 0.999726 5.801102 3.001100
v 2.999726 5.801102 3.001100
v 2.999726 5.801102 1.001100
v 0.999726 5.801102 1.001100
v 0.999726 5.801102 3.001100
v 0.999726 5.801102 1.001100
v 0.999726 1.001101 1.001100
v 0.999726 1.001101 3.001100
v 2.999726 5.801102 -2.998900
v 2.999726 5.801102 -0.998900
v 2.999726 1.001101 -0.998900
v 2.999726 1.001101 -2.998900
v 2.999726 5.801102 -0.998900
v 0.999726 5.801102 -0.998900
v 0.999726 1.001101 -0.998900
v 2.999726 1.001101 -0.998900
v 0.999726 5.801102 -2.998900
v 2.999726 5.801102 -2.998900
v 2.999726 1.001101 -2.998900
v 0.999726 1.001101 -2.998900
v 0.999726 5.801102 -0.998900
v 2.999726 5.801102 -0.998900
v 2.999726 5.801102 -2.998900
v 0.999726 5.801102 -2.998900
v 0.999726 5.801102 -0.998900
v 0.999726 5.801102 -2.998900
v 0.999726 1.001101 -2.998900
v 0.999726 1.001101 -0.998900
v 2.999726 5.201102 -3.998900
v 2.999726 5.201102 -2.998900
v 2.999726 1.001101 -2.998900
v 2.999726 1.001101 -3.998900
v 0.999726 5.201102 -3.998900
v 2.999726 5.201102 -3.998900
v 2.999726 1.001101 -3.998900
v 0.999726 1.001101 -3.998900
v 0.999726 5.201102 -2.998900
v 2.999726 5.201102 -2.998900
v 2.999726 5.201102 -3.998900
v 0.999726 5.201102 -3.998900
v 0.999726 5.201102 -2.998900
v 0.999726 5.201102 -3.998900
v 0.999726 1.001101 -3.998900
v 0.999726 1.001101 -2.998900
vt 0.413971 0.569744
vt 0.413971 0.372978
vt 0.495957 0.372978
vt 0.495957 0.569744
vt 0.917206 0.941914
vt 0.917206 0.851729
vt 0.876213 0.851729
vt 0.876213 0.941914
vt 0.171249 0.976325
vt 0.171249 0.902538
vt 0.212242 0.902538
vt 0.212242 0.976325
vt 0.169632 0.976325
vt 0.169632 0.902538
vt 0.128639 0.902538
vt 0.128639 0.976325
vt 0.876213 0.448383
vt 0.876213 0.489376
vt 0.835220 0.489376
vt 0.835220 0.448383
vt 0.127021 0.976325
vt 0.127022 0.902538
vt 0.086029 0.902538
vt 0.086029 0.976325
vt 0.790993 0.692722
vt 0.790993 0.504155
vt 0.831986 0.504155
vt 0.831986 0.692722
vt 0.250000 0.527134
vt 0.250000 0.330368
vt 0.168014 0.330368
vt 0.168014 0.527134
vt 0.961433 0.423787
vt 0.920440 0.423787
vt 0.920440 0.341801
vt 0.961433 0.341801
vt 0.789375 0.692722
vt 0.789376 0.504155
vt 0.748383 0.504155
vt 0.748383 0.692722
vt 0.168014 0.692722
vt 0.168014 0.528751
vt 0.250000 0.528751
vt 0.250000 0.692722
vt 0.961433 0.256581
vt 0.920440 0.256581
vt 0.920440 0.174596
vt 0.961433 0.174596
vt 0.917206 0.850112
vt 0.917206 0.686141
vt 0.876213 0.686141
vt 0.876213 0.850112
vt 0.413971 0.718935
vt 0.413971 0.571361
vt 0.495957 0.571361
vt 0.495957 0.718935
vt 0.874596 0.364780
vt 0.874596 0.446765
vt 0.792610 0.446765
vt 0.792610 0.364780
vt 0.412354 0.718935
vt 0.412354 0.571361
vt 0.330368 0.571361
vt 0.330368 0.718935
vt 0.579560 0.718935
vt 0.579560 0.563163
vt 0.497574 0.563163
vt 0.497574 0.718935
vt 0.084411 0.984524
vt 0.043419 0.984524
vt 0.043419 0.902538
vt 0.084411 0.902538
vt 0.956581 0.156581
vt 0.956581 0.000809
vt 0.915589 0.000809
vt 0.915589 0.156581
vt 0.746765 0.643531
vt 0.746765 0.504155
vt 0.664780 0.504155
vt 0.664780 0.643531
vt 0.663163 0.812354
vt 0.663163 0.894340
vt 0.581177 0.894340
vt 0.581177 0.812354
vt 0.745148 0.140184
vt 0.745148 0.000809
vt 0.663163 0.000809
vt 0.663163 0.140184
vt 0.831986 0.950112
vt 0.790993 0.950112
vt 0.790993 0.868127
vt 0.831986 0.868127
vt 0.789376 0.950112
vt 0.789376 0.868127
vt 0.748383 0.868127
vt 0.748383 0.950112
vt 0.495957 0.818935
vt 0.495957 0.720553
vt 0.413971 0.720552
vt 0.413971 0.818935
vt 0.746765 0.769744
vt 0.746765 0.851729
vt 0.664780 0.851729
vt 0.664780 0.769744
vt 0.412354 0.818935
vt 0.412354 0.720552
vt 0.330368 0.720552
vt 0.330368 0.818935
vt 0.918823 0.669744
vt 0.918823 0.587758
vt 0.959816 0.587758
vt 0.959816 0.669744
vt 0.959816 0.753347
vt 0.959816 0.671361
vt 0.918823 0.671361
vt 0.918823 0.753347
vt 0.622170 0.895957
vt 0.622170 0.977942
vt 0.581177 0.977942
vt 0.581177 0.895957
vt 0.330368 0.902538
vt 0.412354 0.902538
vt 0.412354 0.820552
vt 0.330368 0.820552
vt 0.959816 0.992722
vt 0.959816 0.935332
vt 0.918823 0.935332
vt 0.918823 0.992722
vt 0.833603 0.448383
vt 0.833603 0.489376
vt 0.792610 0.489376
vt 0.792610 0.448383
vt 0.292610 0.991105
vt 0.292610 0.933715
vt 0.251617 0.933715
vt 0.251617 0.991105
vt 0.579560 0.172978
vt 0.579560 0.000809
vt 0.661545 0.000809
vt 0.661545 0.172978
vt 0.663163 0.536950
vt 0.663163 0.364780
vt 0.581177 0.364780
vt 0.581177 0.536950
vt 0.579560 0.812354
vt 0.579560 0.894340
vt 0.497574 0.894340
vt 0.497574 0.812354
vt 0.577942 0.172978
vt 0.577942 0.000809
vt 0.495957 0.000809
vt 0.495957 0.172978
vt 0.920440 0.499191
vt 0.920440 0.425404
vt 0.961433 0.425404
vt 0.961433 0.499191
vt 0.705773 0.977942
vt 0.664780 0.977942
vt 0.664780 0.936950
vt 0.705773 0.936950
vt 0.371361 0.977942
vt 0.371361 0.904155
vt 0.330368 0.904155
vt 0.330368 0.977942
vt 0.959816 0.504155
vt 0.959816 0.586141
vt 0.918823 0.586141
vt 0.918823 0.504155
vt 0.251617 0.932098
vt 0.300809 0.932098
vt 0.300809 0.850112
vt 0.251617 0.850112
vt 0.746766 0.115588
vt 0.746766 0.000809
vt 0.828751 0.000809
vt 0.828751 0.115588
vt 0.082794 0.817318
vt 0.082794 0.702538
vt 0.000809 0.702538
vt 0.000809 0.817318
vt 0.082794 0.900921
vt 0.000809 0.900921
vt 0.000809 0.818935
vt 0.082794 0.818935
vt 0.663163 0.810737
vt 0.663163 0.695957
vt 0.581177 0.695957
vt 0.581177 0.810737
vt 0.999191 0.066397
vt 0.999191 0.000809
vt 0.958199 0.000809
vt 0.958199 0.066397
vt 0.787758 0.117206
vt 0.787758 0.158199
vt 0.746766 0.158199
vt 0.746766 0.117206
vt 0.454964 0.969744
vt 0.454964 0.904155
vt 0.413971 0.904155
vt 0.413971 0.969744
vt 0.084412 0.817318
vt 0.084412 0.694340
vt 0.166397 0.694340
vt 0.166397 0.817318
vt 0.746765 0.768127
vt 0.746765 0.645148
vt 0.664780 0.645148
vt 0.664780 0.768127
vt 0.166397 0.818935
vt 0.166397 0.900921
vt 0.084412 0.900921
vt 0.084412 0.818935
vt 0.250000 0.817318
vt 0.250000 0.694340
vt 0.168014 0.694340
vt 0.168014 0.817318
vt 0.251617 0.330368
vt 0.292610 0.330368
vt 0.292610 0.658311
vt 0.251617 0.658311
vt 0.707390 0.174596
vt 0.748383 0.174596
vt 0.748383 0.502538
vt 0.707390 0.502538
vt 0.750000 0.502538
vt 0.790993 0.502538
vt 0.790993 0.174596
vt 0.750000 0.174596
vt 0.328751 0.328751
vt 0.328751 0.000809
vt 0.000809 0.000809
vt 0.000809 0.328751
vt 0.664780 0.502538
vt 0.705773 0.502538
vt 0.705773 0.174596
vt 0.664780 0.174596
vt 0.330368 0.172978
vt 0.330368 0.000809
vt 0.494340 0.000809
vt 0.494340 0.172978
vt 0.872979 0.172978
vt 0.872979 0.000809
vt 0.913971 0.000809
vt 0.913971 0.172978
vt 0.876213 0.346766
vt 0.876213 0.174596
vt 0.835220 0.174596
vt 0.835220 0.346766
vt 0.918823 0.174596
vt 0.918823 0.338567
vt 0.877830 0.338567
vt 0.877830 0.174596
vt 0.581177 0.694340
vt 0.581177 0.538567
vt 0.663163 0.538567
vt 0.663163 0.694340
vt 0.084411 0.527134
vt 0.084412 0.330368
vt 0.166397 0.330368
vt 0.166397 0.527134
vt 0.495957 0.902538
vt 0.413971 0.902538
vt 0.413971 0.820552
vt 0.495957 0.820552
vt 0.579560 0.371361
vt 0.579560 0.174596
vt 0.497574 0.174596
vt 0.497574 0.371361
vt 0.830368 0.172978
vt 0.830368 0.000809
vt 0.871361 0.000809
vt 0.871361 0.172978
vt 0.250000 0.900921
vt 0.168014 0.900921
vt 0.168014 0.818935
vt 0.250000 0.818935
vt 0.082794 0.700921
vt 0.082794 0.528751
vt 0.000809 0.528751
vt 0.000809 0.700921
vt 0.959816 0.836950
vt 0.918823 0.836950
vt 0.918823 0.754964
vt 0.959816 0.754964
vt 0.330368 0.569744
vt 0.330368 0.372978
vt 0.412354 0.372978
vt 0.412354 0.569744
vt 0.961433 0.258199
vt 0.961433 0.340184
vt 0.920440 0.340184
vt 0.920440 0.258199
vt 0.495957 0.371361
vt 0.495957 0.174596
vt 0.413971 0.174596
vt 0.413971 0.371361
vt 0.041801 0.984524
vt 0.000809 0.984524
vt 0.000809 0.902538
vt 0.041801 0.902538
vt 0.833603 0.363163
vt 0.833603 0.174596
vt 0.792610 0.174596
vt 0.792610 0.363163
vt 0.330368 0.371361
vt 0.330368 0.174596
vt 0.412354 0.174596
vt 0.412354 0.371361
vt 0.833603 0.684524
vt 0.833603 0.504155
vt 0.874596 0.504155
vt 0.874596 0.684524
vt 0.497574 0.561545
vt 0.497574 0.372978
vt 0.579560 0.372978
vt 0.579560 0.561545
vt 0.082794 0.527134
vt 0.082794 0.330368
vt 0.000809 0.330368
vt 0.000809 0.527134
vt 0.581177 0.363163
vt 0.581177 0.174596
vt 0.663163 0.174596
vt 0.663163 0.363163
vt 0.959816 0.933715
vt 0.918823 0.933715
vt 0.918823 0.851730
vt 0.959816 0.851730
vt 0.918823 0.495957
vt 0.918823 0.340184
vt 0.877830 0.340184
vt 0.877830 0.495957
vt 0.705773 0.935332
vt 0.664780 0.935332
vt 0.664780 0.853347
vt 0.705773 0.853347
vt 0.538567 0.895957
vt 0.538567 0.977942
vt 0.497574 0.977942
vt 0.497574 0.895957
vt 0.084412 0.692722
vt 0.084412 0.528751
vt 0.166397 0.528751
vt 0.166397 0.692722
vt 0.876213 0.668127
vt 0.876213 0.504155
vt 0.917206 0.504155
vt 0.917206 0.668127
vt 0.251617 0.848495
vt 0.251617 0.659928
vt 0.292610 0.659928
vt 0.292610 0.848495
vt 0.789376 0.866509
vt 0.789376 0.694340
vt 0.748383 0.694340
vt 0.748383 0.866509
vt 0.874596 0.866509
vt 0.874596 0.686141
vt 0.833603 0.686141
vt 0.833603 0.866509
vt 0.497574 0.810737
vt 0.497574 0.720552
vt 0.579560 0.720553
vt 0.579560 0.810737
vn 1.0000 0.0000 0.0000
vn -1.0000 0.0000 0.0000
vn 0.0000 0.0000 1.0000
vn 0.0000 0.0000 -1.0000
vn 0.0000 1.0000 0.0000
vn 0.0000 -1.0000 0.0000
usemtl Material.001
s off
f 332/1/1 329/2/1 330/3/1 331/4/1
f 12/5/2 9/6/2 10/7/2 11/8/2
f 16/9/3 13/10/3 14/11/3 15/12/3
f 20/13/4 17/14/4 18/15/4 19/16/4
f 24/17/5 21/18/5 22/19/5 23/20/5
f 28/21/2 25/22/2 26/23/2 27/24/2
f 32/25/1 29/26/1 30/27/1 31/28/1
f 320/29/4 317/30/4 318/31/4 319/32/4
f 40/33/5 37/34/5 38/35/5 39/36/5
f 44/37/2 41/38/2 42/39/2 43/40/2
f 48/41/3 45/42/3 46/43/3 47/44/3
f 52/45/5 49/46/5 50/47/5 51/48/5
f 56/49/2 53/50/2 54/51/2 55/52/2
f 60/53/3 57/54/3 58/55/3 59/56/3
f 64/57/5 61/58/5 62/59/5 63/60/5
f 68/61/2 65/62/2 66/63/2 67/64/2
f 72/65/4 69/66/4 70/67/4 71/68/4
f 76/69/5 73/70/5 74/71/5 75/72/5
f 80/73/2 77/74/2 78/75/2 79/76/2
f 84/77/4 81/78/4 82/79/4 83/80/4
f 88/81/5 85/82/5 86/83/5 87/84/5
f 92/85/2 89/86/2 90/87/2 91/88/2
f 96/89/5 93/90/5 94/91/5 95/92/5
f 100/93/2 97/94/2 98/95/2 99/96/2
f 104/97/4 101/98/4 102/99/4 103/100/4
f 108/101/5 105/102/5 106/103/5 107/104/5
f 112/105/2 109/106/2 110/107/2 111/108/2
f 116/109/3 113/110/3 114/111/3 115/112/3
f 120/113/4 117/114/4 118/115/4 119/116/4
f 124/117/5 121/118/5 122/119/5 123/120/5
f 128/121/2 125/122/2 126/123/2 127/124/2
f 132/125/4 129/126/4 130/127/4 131/128/4
f 136/129/5 133/130/5 134/131/5 135/132/5
f 140/133/2 137/134/2 138/135/2 139/136/2
f 144/137/3 141/138/3 142/139/3 143/140/3
f 148/141/4 145/142/4 146/143/4 147/144/4
f 152/145/5 149/146/5 150/147/5 151/148/5
f 156/149/2 153/150/2 154/151/2 155/152/2
f 160/153/3 157/154/3 158/155/3 159/156/3
f 164/157/5 161/158/5 162/159/5 163/160/5
f 168/161/2 165/162/2 166/163/2 167/164/2
f 172/165/5 169/166/5 170/167/5 171/168/5
f 176/169/2 173/170/2 174/171/2 175/172/2
f 180/173/3 177/174/3 178/175/3 179/176/3
f 184/177/4 181/178/4 182/179/4 183/180/4
f 188/181/5 185/182/5 186/183/5 187/184/5
f 192/185/2 189/186/2 190/187/2 191/188/2
f 196/189/4 193/190/4 194/191/4 195/192/4
f 200/193/5 197/194/5 198/195/5 199/196/5
f 204/197/2 201/198/2 202/199/2 203/200/2
f 208/201/3 205/202/3 206/203/3 207/204/3
f 212/205/4 209/206/4 210/207/4 211/208/4
f 216/209/5 213/210/5 214/211/5 215/212/5
f 220/213/2 217/214/2 218/215/2 219/216/2
f 224/217/1 221/218/1 222/219/1 223/220/1
f 228/221/3 225/222/3 226/223/3 227/224/3
f 232/225/4 229/226/4 230/227/4 231/228/4
f 236/229/6 233/230/6 234/231/6 235/232/6
f 240/233/2 237/234/2 238/235/2 239/236/2
f 244/237/1 241/238/1 242/239/1 243/240/1
f 248/241/3 245/242/3 246/243/3 247/244/3
f 252/245/4 249/246/4 250/247/4 251/248/4
f 256/249/5 253/250/5 254/251/5 255/252/5
f 260/253/1 257/254/1 258/255/1 259/256/1
f 336/257/3 333/258/3 334/259/3 335/260/3
f 344/261/5 341/262/5 342/263/5 343/264/5
f 348/265/2 345/266/2 346/267/2 347/268/2
f 352/269/1 349/270/1 350/271/1 351/272/1
f 324/273/5 321/274/5 322/275/5 323/276/5
f 356/277/4 353/278/4 354/279/4 355/280/4
f 288/281/5 285/282/5 286/283/5 287/284/5
f 316/285/3 313/286/3 314/287/3 315/288/3
f 280/289/5 277/290/5 278/291/5 279/292/5
f 328/293/2 325/294/2 326/295/2 327/296/2
f 304/297/5 301/298/5 302/299/5 303/300/5
f 308/301/2 305/302/2 306/303/2 307/304/2
f 312/305/1 309/306/1 310/307/1 311/308/1
f 284/309/1 281/310/1 282/311/1 283/312/1
f 36/313/3 33/314/3 34/315/3 35/316/3
f 340/317/4 337/318/4 338/319/4 339/320/4
f 300/321/3 297/322/3 298/323/3 299/324/3
f 8/325/5 5/326/5 6/327/5 7/328/5
f 264/329/4 261/330/4 262/331/4 263/332/4
f 360/333/5 357/334/5 358/335/5 359/336/5
f 268/337/5 265/338/5 266/339/5 267/340/5
f 272/341/1 269/342/1 270/343/1 271/344/1
f 276/345/3 273/346/3 274/347/3 275/348/3
f 296/349/1 293/350/1 294/351/1 295/352/1
f 364/353/2 361/354/2 362/355/2 363/356/2
f 292/357/2 289/358/2 290/359/2 291/360/2
f 4/361/3 1/362/3 2/363/3 3/364/3
