# Blender v2.92.0 OBJ File: 'RockWallCorner.blend'
# www.blender.org
mtllib RockWallCorner.mtl
o BMC_Plastic_Bevel_5
v 3.001853 4.801608 -3.997789
v 3.001853 4.801608 -2.997789
v 3.001853 3.001608 -2.997789
v 3.001853 3.001608 -3.997789
v 1.001853 4.801608 -3.997789
v 3.001853 4.801608 -3.997789
v 3.001853 3.001608 -3.997789
v 1.001853 3.001608 -3.997789
v 1.001853 4.801608 -2.997789
v 3.001853 4.801608 -2.997789
v 3.001853 4.801608 -3.997789
v 1.001853 4.801608 -3.997789
v 1.001853 4.801608 -2.997789
v 1.001853 4.801608 -3.997789
v 1.001853 3.001608 -3.997789
v 1.001853 3.001608 -2.997789
v 4.001853 4.601607 2.002211
v 4.001853 4.601607 4.002212
v 4.001853 3.001608 4.002212
v 4.001853 3.001608 2.002211
v 4.001853 4.601607 4.002212
v 4.001853 4.601607 2.002211
v 3.001853 4.601607 2.002211
v 3.001853 4.601607 4.002212
v 4.001853 4.601607 4.002212
v 3.001853 4.601607 4.002212
v 3.001853 3.001608 4.002212
v 4.001853 3.001608 4.002212
v 4.001853 4.401608 -3.997789
v 4.001853 4.401608 -1.997789
v 4.001853 3.001608 -1.997789
v 4.001853 3.001608 -3.997789
v 3.001853 4.401608 -3.997789
v 3.001853 4.401608 -1.997789
v 4.001853 4.401608 -1.997789
v 4.001853 4.401608 -3.997789
v 3.001853 4.401608 -3.997789
v 4.001853 4.401608 -3.997789
v 4.001853 3.001608 -3.997789
v 3.001853 3.001608 -3.997789
v 3.001853 4.801608 -1.997789
v 4.001853 4.801608 -1.997789
v 4.001853 3.001608 -1.997789
v 3.001853 3.001608 -1.997789
v 4.001853 4.801608 -1.997789
v 4.001853 4.801608 0.002211
v 4.001853 3.001608 0.002211
v 4.001853 3.001608 -1.997789
v 4.001853 4.801608 0.002211
v 4.001853 4.801608 -1.997789
v 3.001853 4.801608 -1.997789
v 3.001853 4.801608 0.002211
v 4.001853 4.801608 0.002211
v 4.001853 4.801608 2.002211
v 4.001853 3.001608 2.002211
v 4.001853 3.001608 0.002211
v 4.001853 4.801608 2.002211
v 4.001853 4.801608 0.002211
v 3.001853 4.801608 0.002211
v 3.001853 4.801608 2.002211
v 4.001853 4.801608 2.002211
v 3.001853 4.801608 2.002211
v 3.001853 3.001608 2.002211
v 4.001853 3.001608 2.002211
v 3.001853 5.201608 2.002211
v 1.001853 5.201608 2.002211
v 1.001853 3.001608 2.002211
v 3.001853 3.001608 2.002211
v 1.001853 5.201608 2.002211
v 1.001853 5.201608 0.002211
v 1.001853 3.001608 0.002211
v 1.001853 3.001608 2.002211
v 3.001853 5.201608 0.002211
v 3.001853 5.201608 2.002211
v 3.001853 3.001608 2.002211
v 3.001853 3.001608 0.002211
v 1.001853 5.201608 0.002211
v 1.001853 5.201608 2.002211
v 3.001853 5.201608 2.002211
v 3.001853 5.201608 0.002211
v 1.001853 5.801608 -0.997789
v 1.001853 5.801608 -2.997789
v 1.001853 3.001608 -2.997789
v 1.001853 3.001608 -0.997789
v 1.001853 5.801608 -2.997789
v 3.001853 5.801608 -2.997789
v 3.001853 3.001608 -2.997789
v 1.001853 3.001608 -2.997789
v 3.001853 5.801608 -0.997789
v 1.001853 5.801608 -0.997789
v 1.001853 3.001608 -0.997789
v 3.001853 3.001608 -0.997789
v 3.001853 5.801608 -2.997789
v 1.001853 5.801608 -2.997789
v 1.001853 5.801608 -0.997789
v 3.001853 5.801608 -0.997789
v 3.001853 5.801608 -2.997789
v 3.001853 5.801608 -0.997789
v 3.001853 3.001608 -0.997789
v 3.001853 3.001608 -2.997789
v 3.001853 5.001608 4.002212
v 1.001853 5.001608 4.002212
v 1.001853 3.001608 4.002212
v 3.001853 3.001608 4.002212
v 1.001853 5.001608 4.002212
v 1.001853 5.001608 2.002211
v 1.001853 3.001608 2.002211
v 1.001853 3.001608 4.002212
v 3.001853 5.001608 2.002211
v 3.001853 5.001608 4.002212
v 3.001853 3.001608 4.002212
v 3.001853 3.001608 2.002211
v 1.001853 5.001608 2.002211
v 1.001853 5.001608 4.002212
v 3.001853 5.001608 4.002212
v 3.001853 5.001608 2.002211
v 1.001853 5.401608 0.002211
v 1.001853 5.401608 -0.997789
v 1.001853 3.001608 -0.997789
v 1.001853 3.001608 0.002211
v 3.001853 5.401608 0.002211
v 1.001853 5.401608 0.002211
v 1.001853 3.001608 0.002211
v 3.001853 3.001608 0.002211
v 3.001853 5.401608 -0.997789
v 1.001853 5.401608 -0.997789
v 1.001853 5.401608 0.002211
v 3.001853 5.401608 0.002211
v 3.001853 5.401608 -0.997789
v 3.001853 5.401608 0.002211
v 3.001853 3.001608 0.002211
v 3.001853 3.001608 -0.997789
v 1.001853 5.601607 -0.997789
v 0.001853 5.601607 -0.997789
v 0.001853 3.001608 -0.997789
v 1.001853 3.001608 -0.997789
v 0.001853 5.601607 -0.997789
v 0.001853 5.601607 -2.997789
v 0.001853 3.001608 -2.997789
v 0.001853 3.001608 -0.997789
v 0.001853 5.601607 -2.997789
v 0.001853 5.601607 -0.997789
v 1.001853 5.601607 -0.997789
v 1.001853 5.601607 -2.997789
v 0.001853 5.601607 -2.997789
v 1.001853 5.601607 -2.997789
v 1.001853 3.001608 -2.997789
v 0.001853 3.001608 -2.997789
v -0.998147 4.401608 -3.997789
v 1.001853 4.401608 -3.997789
v 1.001853 3.001608 -3.997789
v -0.998147 3.001608 -3.997789
v -0.998147 4.401608 -2.997789
v 1.001853 4.401608 -2.997789
v 1.001853 4.401608 -3.997789
v -0.998147 4.401608 -3.997789
v -3.998147 4.601607 -2.997789
v -3.998147 4.601607 -3.997789
v -3.998147 3.001608 -3.997789
v -3.998147 3.001608 -2.997789
v -3.998147 4.601607 -3.997789
v -3.998147 4.601607 -2.997789
v -2.998147 4.601607 -2.997789
v -2.998147 4.601607 -3.997789
v -3.998147 4.601607 -3.997789
v -2.998147 4.601607 -3.997789
v -2.998147 3.001608 -3.997789
v -3.998147 3.001608 -3.997789
v -0.998147 4.801608 -3.997789
v -0.998147 4.801608 -2.997789
v -0.998147 3.001608 -2.997789
v -0.998147 3.001608 -3.997789
v -2.998147 4.801608 -3.997789
v -0.998147 4.801608 -3.997789
v -0.998147 3.001608 -3.997789
v -2.998147 3.001608 -3.997789
v -2.998147 4.801608 -2.997789
v -0.998147 4.801608 -2.997789
v -0.998147 4.801608 -3.997789
v -2.998147 4.801608 -3.997789
v -2.998147 4.801608 -2.997789
v -2.998147 4.801608 -3.997789
v -2.998147 3.001608 -3.997789
v -2.998147 3.001608 -2.997789
v -3.998147 3.001608 -3.997789
v 4.001853 3.001608 -3.997789
v 4.001853 0.001608 -3.997789
v -3.998147 0.001608 -3.997789
v 4.001853 3.001608 -3.997789
v 4.001853 3.001608 4.002212
v 4.001853 0.001608 4.002212
v 4.001853 0.001608 -3.997789
v -3.998147 3.001608 4.002212
v -3.998147 3.001608 -3.997789
v -3.998147 0.001608 -3.997789
v -3.998147 0.001608 4.002212
v -3.998147 0.001608 4.002212
v -3.998147 0.001608 -3.997789
v 4.001853 0.001608 -3.997789
v 4.001853 0.001608 4.002212
v 4.001853 3.001608 4.002212
v 4.001853 3.001608 -3.997789
v -3.998147 3.001608 -3.997789
v -3.998147 3.001608 4.002212
v 4.001853 3.001608 4.002212
v -3.998147 3.001608 4.002212
v -3.998147 0.001608 4.002212
v 4.001853 0.001608 4.002212
v -1.998147 5.401608 -0.997789
v -3.998147 5.401608 -0.997789
v -3.998147 3.001608 -0.997789
v -1.998147 3.001608 -0.997789
v -3.998147 5.401608 -0.997789
v -3.998147 5.401608 -2.997789
v -3.998147 3.001608 -2.997789
v -3.998147 3.001608 -0.997789
v -1.998147 5.401608 -2.997789
v -1.998147 5.401608 -0.997789
v -1.998147 3.001608 -0.997789
v -1.998147 3.001608 -2.997789
v -3.998147 5.401608 -2.997789
v -3.998147 5.401608 -0.997789
v -1.998147 5.401608 -0.997789
v -1.998147 5.401608 -2.997789
v -3.998147 5.401608 -2.997789
v -1.998147 5.401608 -2.997789
v -1.998147 3.001608 -2.997789
v -3.998147 3.001608 -2.997789
v 0.001853 5.201608 -0.997789
v -1.998147 5.201608 -0.997789
v -1.998147 3.001608 -0.997789
v 0.001853 3.001608 -0.997789
v -1.998147 5.201608 -2.997789
v -1.998147 5.201608 -0.997789
v 0.001853 5.201608 -0.997789
v 0.001853 5.201608 -2.997789
v -1.998147 5.201608 -2.997789
v 0.001853 5.201608 -2.997789
v 0.001853 3.001608 -2.997789
v -1.998147 3.001608 -2.997789
v -3.998147 3.401608 3.002211
v -3.998147 3.401608 1.002211
v -3.998147 3.001608 1.002211
v -3.998147 3.001608 3.002211
v -2.998147 3.401608 3.002211
v -2.998147 3.401608 1.002211
v -3.998147 3.401608 1.002211
v -3.998147 3.401608 3.002211
v -2.998147 3.401608 3.002211
v -3.998147 3.401608 3.002211
v -3.998147 3.001608 3.002211
v -2.998147 3.001608 3.002211
v -2.998147 4.401608 1.002211
v -3.998147 4.401608 1.002211
v -3.998147 3.001608 1.002211
v -2.998147 3.001608 1.002211
v -3.998147 4.401608 1.002211
v -2.998147 4.401608 1.002211
v -2.998147 4.401608 -0.997789
v -3.998147 4.401608 -0.997789
v -3.998147 4.401608 1.002211
v -3.998147 4.401608 -0.997789
v -3.998147 3.001608 -0.997789
v -3.998147 3.001608 1.002211
v -0.998147 4.001608 2.002211
v -1.998147 4.001608 2.002211
v -1.998147 3.601608 2.002211
v -0.998147 3.601608 2.002211
v -1.998147 4.001608 2.002211
v -1.998147 4.001608 1.002211
v -1.998147 3.601608 1.002211
v -1.998147 3.601608 2.002211
v -1.998147 4.001608 1.002211
v -1.998147 4.001608 2.002211
v -0.998147 4.001608 2.002211
v -0.998147 4.001608 1.002211
v 1.001853 4.601607 2.002211
v -0.998147 4.601607 2.002211
v -0.998147 3.001608 2.002211
v 1.001853 3.001608 2.002211
v -0.998147 4.601607 2.002211
v -0.998147 4.601607 1.002211
v -0.998147 3.001608 1.002211
v -0.998147 3.001608 2.002211
v -0.998147 4.601607 1.002211
v -0.998147 4.601607 2.002211
v 1.001853 4.601607 2.002211
v 1.001853 4.601607 1.002211
v -2.998147 3.601608 3.002211
v -0.998147 3.601608 3.002211
v -0.998147 3.601608 1.002211
v -2.998147 3.601608 1.002211
v -2.998147 3.601608 3.002211
v -2.998147 3.601608 1.002211
v -2.998147 3.001608 1.002211
v -2.998147 3.001608 3.002211
v 1.001853 4.201608 4.002212
v -0.998147 4.201608 4.002212
v -0.998147 3.001608 4.002212
v 1.001853 3.001608 4.002212
v -0.998147 4.201608 4.002212
v -0.998147 4.201608 2.002211
v -0.998147 3.001608 2.002211
v -0.998147 3.001608 4.002212
v -0.998147 4.201608 2.002211
v -0.998147 4.201608 4.002212
v 1.001853 4.201608 4.002212
v 1.001853 4.201608 2.002211
v 1.001853 4.801608 1.002211
v -2.998147 4.801608 1.002211
v -2.998147 3.001608 1.002211
v 1.001853 3.001608 1.002211
v -2.998147 4.801608 1.002211
v 1.001853 4.801608 1.002211
v 1.001853 4.801608 -0.997789
v -2.998147 4.801608 -0.997789
v -2.998147 4.801608 1.002211
v -2.998147 4.801608 -0.997789
v -2.998147 3.001608 -0.997789
v -2.998147 3.001608 1.002211
v -2.998147 3.601608 4.002212
v -2.998147 3.601608 3.002211
v -2.998147 3.001608 3.002211
v -2.998147 3.001608 4.002212
v -0.998147 3.601608 4.002212
v -0.998147 3.601608 3.002211
v -2.998147 3.601608 3.002211
v -2.998147 3.601608 4.002212
v -0.998147 3.601608 4.002212
v -2.998147 3.601608 4.002212
v -2.998147 3.001608 4.002212
v -0.998147 3.001608 4.002212
vt 0.467237 0.719108
vt 0.494067 0.719108
vt 0.494067 0.808539
vt 0.467237 0.808539
vt 0.994710 0.814385
vt 0.949995 0.814385
vt 0.949995 0.724954
vt 0.994710 0.724954
vt 0.857640 0.172113
vt 0.857640 0.091624
vt 0.812924 0.091624
vt 0.812924 0.172113
vt 0.000731 0.827887
vt 0.072276 0.827887
vt 0.072276 0.917319
vt 0.000731 0.917319
vt 0.994710 0.996172
vt 0.949995 0.996172
vt 0.949995 0.906740
vt 0.994710 0.906740
vt 0.414866 0.981383
vt 0.414866 0.909838
vt 0.459582 0.909838
vt 0.459582 0.981383
vt 0.894874 0.181056
vt 0.957476 0.181056
vt 0.957476 0.270488
vt 0.894874 0.270488
vt 0.428367 0.908376
vt 0.508856 0.908376
vt 0.508856 0.818944
vt 0.428367 0.818944
vt 0.598114 0.972440
vt 0.598114 0.909837
vt 0.553398 0.909837
vt 0.553398 0.972440
vt 0.949995 0.172113
vt 0.949995 0.091624
vt 0.905279 0.091624
vt 0.905279 0.172113
vt 0.264467 0.818944
vt 0.344956 0.818944
vt 0.344956 0.908376
vt 0.264467 0.908376
vt 0.274872 0.999269
vt 0.230156 0.999269
vt 0.230156 0.909837
vt 0.274872 0.909837
vt 0.510318 0.818944
vt 0.590806 0.818944
vt 0.590806 0.908376
vt 0.510318 0.908376
vt 0.876988 0.976824
vt 0.832272 0.976824
vt 0.832272 0.887392
vt 0.876988 0.887392
vt 0.896335 0.352438
vt 0.896335 0.271949
vt 0.941051 0.271949
vt 0.941051 0.352438
vt 0.273410 0.817483
vt 0.273410 0.719108
vt 0.362842 0.719108
vt 0.362842 0.817483
vt 0.453735 0.817483
vt 0.453735 0.719108
vt 0.364304 0.719108
vt 0.364304 0.817483
vt 0.495528 0.817483
vt 0.495528 0.719108
vt 0.584960 0.719108
vt 0.584960 0.817483
vt 0.902356 0.796499
vt 0.902356 0.885931
vt 0.812924 0.885931
vt 0.812924 0.796499
vt 0.720569 0.486585
vt 0.720569 0.361381
vt 0.631137 0.361381
vt 0.631137 0.486585
vt 0.720569 0.739917
vt 0.720569 0.614713
vt 0.631137 0.614713
vt 0.631137 0.739917
vt 0.713087 0.306260
vt 0.713087 0.181056
vt 0.802519 0.181056
vt 0.802519 0.306260
vt 0.803981 0.270487
vt 0.803981 0.181056
vt 0.893413 0.181056
vt 0.893413 0.270487
vt 0.631137 0.613251
vt 0.631137 0.488047
vt 0.720569 0.488047
vt 0.720569 0.613251
vt 0.812924 0.668372
vt 0.812924 0.578940
vt 0.902356 0.578940
vt 0.902356 0.668372
vt 0.812924 0.559592
vt 0.902356 0.559592
vt 0.902356 0.470160
vt 0.812924 0.470160
vt 0.812924 0.687719
vt 0.902356 0.687719
vt 0.902356 0.777151
vt 0.812924 0.777151
vt 0.812924 0.361381
vt 0.902356 0.361381
vt 0.902356 0.450812
vt 0.812924 0.450812
vt 0.948533 0.795038
vt 0.948533 0.687720
vt 0.903817 0.687720
vt 0.903817 0.795038
vt 0.000731 0.826426
vt 0.000731 0.719108
vt 0.090163 0.719108
vt 0.090163 0.826426
vt 0.183979 0.909837
vt 0.228695 0.909837
vt 0.228695 0.999269
vt 0.183979 0.999269
vt 0.903817 0.903817
vt 0.903817 0.796499
vt 0.948533 0.796499
vt 0.948533 0.903817
vt 0.903817 0.686258
vt 0.903817 0.569997
vt 0.948533 0.569997
vt 0.948533 0.686258
vt 0.811462 0.116992
vt 0.811462 0.000731
vt 0.722031 0.000731
vt 0.722031 0.116992
vt 0.949995 0.452274
vt 0.994711 0.452274
vt 0.994711 0.541706
vt 0.949995 0.541706
vt 0.948533 0.568535
vt 0.948533 0.452274
vt 0.903817 0.452274
vt 0.903817 0.568535
vt 0.903817 0.090163
vt 0.966419 0.090163
vt 0.966419 0.000731
vt 0.903817 0.000731
vt 0.948533 0.994710
vt 0.903817 0.994710
vt 0.903817 0.905279
vt 0.948533 0.905279
vt 0.413404 0.981383
vt 0.413404 0.909838
vt 0.368688 0.909838
vt 0.368688 0.981383
vt 0.757803 0.307722
vt 0.757803 0.352438
vt 0.713087 0.352438
vt 0.713087 0.307722
vt 0.367227 0.981383
vt 0.367227 0.909837
vt 0.322511 0.909837
vt 0.322511 0.981383
vt 0.850158 0.352438
vt 0.850158 0.271949
vt 0.894874 0.271949
vt 0.894874 0.352438
vt 0.346417 0.908376
vt 0.426906 0.908376
vt 0.426906 0.818944
vt 0.346417 0.818944
vt 0.136340 0.999269
vt 0.091624 0.999269
vt 0.091624 0.909838
vt 0.136340 0.909838
vt 0.903817 0.172113
vt 0.903817 0.091624
vt 0.859101 0.091624
vt 0.859101 0.172113
vt 0.495528 0.358458
vt 0.629676 0.358458
vt 0.629676 0.000731
vt 0.495528 0.000731
vt 0.359919 0.359919
vt 0.494067 0.359919
vt 0.494067 0.717646
vt 0.359919 0.717646
vt 0.359919 0.358458
vt 0.494067 0.358458
vt 0.494067 0.000731
vt 0.359919 0.000731
vt 0.000731 0.717646
vt 0.358458 0.717646
vt 0.358458 0.359919
vt 0.000731 0.359919
vt 0.358458 0.358458
vt 0.000731 0.358458
vt 0.000731 0.000731
vt 0.358458 0.000731
vt 0.495528 0.359919
vt 0.629676 0.359919
vt 0.629676 0.717646
vt 0.495528 0.717646
vt 0.722031 0.686258
vt 0.722031 0.578940
vt 0.811462 0.578940
vt 0.811462 0.686258
vt 0.811462 0.577478
vt 0.811462 0.470160
vt 0.722031 0.470160
vt 0.722031 0.577478
vt 0.722031 0.468699
vt 0.722031 0.361381
vt 0.811462 0.361381
vt 0.811462 0.468699
vt 0.722031 0.796499
vt 0.811463 0.796499
vt 0.811463 0.885931
vt 0.722031 0.885931
vt 0.811462 0.795038
vt 0.811462 0.687719
vt 0.722031 0.687719
vt 0.722031 0.795038
vt 0.182517 0.817483
vt 0.182517 0.719108
vt 0.271949 0.719108
vt 0.271949 0.817483
vt 0.631137 0.741379
vt 0.720569 0.741379
vt 0.720569 0.830810
vt 0.631137 0.830810
vt 0.181056 0.817483
vt 0.181056 0.719108
vt 0.091624 0.719108
vt 0.091624 0.817483
vt 0.595365 0.899433
vt 0.613251 0.899433
vt 0.613251 0.810001
vt 0.595365 0.810001
vt 0.994711 0.723492
vt 0.949995 0.723492
vt 0.949995 0.634061
vt 0.994711 0.634061
vt 0.768208 0.118453
vt 0.786094 0.118453
vt 0.786094 0.163169
vt 0.768208 0.163169
vt 0.507220 0.972440
vt 0.507220 0.909837
vt 0.551936 0.909837
vt 0.551936 0.972440
vt 0.994710 0.815847
vt 0.994710 0.905279
vt 0.949995 0.905279
vt 0.949995 0.815847
vt 0.903817 0.450813
vt 0.966419 0.450813
vt 0.966419 0.361381
vt 0.903817 0.361381
vt 0.787556 0.118454
vt 0.805442 0.118454
vt 0.805442 0.163169
vt 0.787556 0.163169
vt 0.878449 0.932108
vt 0.896336 0.932108
vt 0.896336 0.887392
vt 0.878449 0.887392
vt 0.766747 0.118454
vt 0.766747 0.163169
vt 0.722031 0.163169
vt 0.722031 0.118454
vt 0.759265 0.352438
vt 0.786094 0.352438
vt 0.786094 0.307722
vt 0.759265 0.307722
vt 0.586422 0.808539
vt 0.613251 0.808539
vt 0.613251 0.719108
vt 0.586422 0.719108
vt 0.321049 0.909837
vt 0.321049 0.999269
vt 0.276334 0.999269
vt 0.276334 0.909837
vt 0.720569 0.179594
vt 0.631137 0.179594
vt 0.631137 0.000731
vt 0.720569 0.000731
vt 0.631137 0.832272
vt 0.702683 0.832272
vt 0.702683 0.921704
vt 0.631137 0.921704
vt 0.137801 0.999269
vt 0.137801 0.909838
vt 0.182517 0.909838
vt 0.182517 0.999269
vt 0.722031 0.976824
vt 0.775690 0.976824
vt 0.775690 0.887392
vt 0.722031 0.887392
vt 0.812924 0.000731
vt 0.902356 0.000731
vt 0.902356 0.090163
vt 0.812924 0.090163
vt 0.631137 0.181056
vt 0.711626 0.181056
vt 0.711626 0.359919
vt 0.631137 0.359919
vt 0.505759 0.981383
vt 0.505759 0.909838
vt 0.461043 0.909838
vt 0.461043 0.981383
vt 0.949995 0.543167
vt 0.994711 0.543167
vt 0.994711 0.632599
vt 0.949995 0.632599
vt 0.181056 0.908376
vt 0.091624 0.908376
vt 0.091624 0.818944
vt 0.181056 0.818944
vt 0.777151 0.887392
vt 0.830810 0.887392
vt 0.830810 0.976824
vt 0.777151 0.976824
vt 0.182517 0.908376
vt 0.263006 0.908376
vt 0.263006 0.818944
vt 0.182517 0.818944
vt 0.803981 0.352438
vt 0.803981 0.271949
vt 0.848697 0.271949
vt 0.848697 0.352438
vn 0.0000 0.0000 1.0000
vn 0.0000 1.0000 0.0000
vn -1.0000 0.0000 0.0000
vn 1.0000 0.0000 0.0000
vn 0.0000 0.0000 -1.0000
vn 0.0000 -1.0000 0.0000
usemtl Material.001
s off
f 332/1/1 329/2/1 330/3/1 331/4/1
f 12/5/2 9/6/2 10/7/2 11/8/2
f 16/9/3 13/10/3 14/11/3 15/12/3
f 20/13/4 17/14/4 18/15/4 19/16/4
f 24/17/2 21/18/2 22/19/2 23/20/2
f 28/21/1 25/22/1 26/23/1 27/24/1
f 32/25/4 29/26/4 30/27/4 31/28/4
f 320/29/3 317/30/3 318/31/3 319/32/3
f 40/33/5 37/34/5 38/35/5 39/36/5
f 44/37/5 41/38/5 42/39/5 43/40/5
f 48/41/4 45/42/4 46/43/4 47/44/4
f 52/45/2 49/46/2 50/47/2 51/48/2
f 56/49/4 53/50/4 54/51/4 55/52/4
f 60/53/2 57/54/2 58/55/2 59/56/2
f 64/57/1 61/58/1 62/59/1 63/60/1
f 68/61/1 65/62/1 66/63/1 67/64/1
f 72/65/3 69/66/3 70/67/3 71/68/3
f 76/69/4 73/70/4 74/71/4 75/72/4
f 80/73/2 77/74/2 78/75/2 79/76/2
f 84/77/3 81/78/3 82/79/3 83/80/3
f 88/81/5 85/82/5 86/83/5 87/84/5
f 92/85/1 89/86/1 90/87/1 91/88/1
f 96/89/2 93/90/2 94/91/2 95/92/2
f 100/93/4 97/94/4 98/95/4 99/96/4
f 104/97/1 101/98/1 102/99/1 103/100/1
f 108/101/3 105/102/3 106/103/3 107/104/3
f 112/105/4 109/106/4 110/107/4 111/108/4
f 116/109/2 113/110/2 114/111/2 115/112/2
f 120/113/3 117/114/3 118/115/3 119/116/3
f 124/117/1 121/118/1 122/119/1 123/120/1
f 128/121/2 125/122/2 126/123/2 127/124/2
f 132/125/4 129/126/4 130/127/4 131/128/4
f 136/129/1 133/130/1 134/131/1 135/132/1
f 140/133/3 137/134/3 138/135/3 139/136/3
f 144/137/2 141/138/2 142/139/2 143/140/2
f 148/141/5 145/142/5 146/143/5 147/144/5
f 152/145/5 149/146/5 150/147/5 151/148/5
f 156/149/2 153/150/2 154/151/2 155/152/2
f 160/153/3 157/154/3 158/155/3 159/156/3
f 164/157/2 161/158/2 162/159/2 163/160/2
f 168/161/5 165/162/5 166/163/5 167/164/5
f 172/165/4 169/166/4 170/167/4 171/168/4
f 176/169/5 173/170/5 174/171/5 175/172/5
f 180/173/2 177/174/2 178/175/2 179/176/2
f 184/177/3 181/178/3 182/179/3 183/180/3
f 188/181/5 185/182/5 186/183/5 187/184/5
f 192/185/4 189/186/4 190/187/4 191/188/4
f 196/189/3 193/190/3 194/191/3 195/192/3
f 200/193/6 197/194/6 198/195/6 199/196/6
f 204/197/2 201/198/2 202/199/2 203/200/2
f 208/201/1 205/202/1 206/203/1 207/204/1
f 212/205/1 209/206/1 210/207/1 211/208/1
f 216/209/3 213/210/3 214/211/3 215/212/3
f 220/213/4 217/214/4 218/215/4 219/216/4
f 224/217/2 221/218/2 222/219/2 223/220/2
f 228/221/5 225/222/5 226/223/5 227/224/5
f 232/225/1 229/226/1 230/227/1 231/228/1
f 236/229/2 233/230/2 234/231/2 235/232/2
f 240/233/5 237/234/5 238/235/5 239/236/5
f 244/237/3 241/238/3 242/239/3 243/240/3
f 248/241/2 245/242/2 246/243/2 247/244/2
f 252/245/1 249/246/1 250/247/1 251/248/1
f 256/249/1 253/250/1 254/251/1 255/252/1
f 260/253/2 257/254/2 258/255/2 259/256/2
f 264/257/3 261/258/3 262/259/3 263/260/3
f 268/261/1 265/262/1 266/263/1 267/264/1
f 272/265/3 269/266/3 270/267/3 271/268/3
f 276/269/2 273/270/2 274/271/2 275/272/2
f 324/273/3 321/274/3 322/275/3 323/276/3
f 296/277/3 293/278/3 294/279/3 295/280/3
f 288/281/2 285/282/2 286/283/2 287/284/2
f 316/285/2 313/286/2 314/287/2 315/288/2
f 280/289/1 277/290/1 278/291/1 279/292/1
f 328/293/2 325/294/2 326/295/2 327/296/2
f 304/297/3 301/298/3 302/299/3 303/300/3
f 308/301/2 305/302/2 306/303/2 307/304/2
f 312/305/1 309/306/1 310/307/1 311/308/1
f 284/309/3 281/310/3 282/311/3 283/312/3
f 36/313/2 33/314/2 34/315/2 35/316/2
f 292/317/2 289/318/2 290/319/2 291/320/2
f 300/321/1 297/322/1 298/323/1 299/324/1
f 8/325/5 5/326/5 6/327/5 7/328/5
f 4/329/4 1/330/4 2/331/4 3/332/4
