# Blender v2.92.0 OBJ File: ''
# www.blender.org
mtllib TerrainRampGround.mtl
o BMC_Plastic_Bevel_5
v 3.999967 3.000000 -4.000000
v -4.000033 0.000000 -4.000000
v -4.000033 0.000000 4.000000
v 3.999967 3.000000 4.000000
v 3.999967 0.000000 -4.000000
v 3.999967 3.000000 -4.000000
v 3.999967 3.000000 4.000000
v 3.999967 0.000000 4.000000
v -4.000033 0.000000 -4.000000
v 3.999967 0.000000 -4.000000
v 3.999967 0.000000 4.000000
v -4.000033 0.000000 4.000000
v 3.999967 3.000000 -4.000000
v 3.999967 0.000000 -4.000000
v -4.000033 0.000000 -4.000000
v 3.999967 0.000000 4.000000
v 3.999967 3.000000 4.000000
v -4.000033 0.000000 4.000000
vt 0.983398 0.983887
vt 0.016449 0.983887
vt 0.016449 0.016113
vt 0.983398 0.016113
vt 0.992676 0.983887
vt 0.007160 0.983887
vt 0.007160 0.016113
vt 0.992676 0.016113
vt 0.983887 0.983887
vt 0.016113 0.983887
vt 0.016113 0.016113
vt 0.983887 0.016113
vt 0.016113 0.992840
vt 0.016113 0.007324
vt 0.983887 0.007324
vt 0.016113 0.992840
vt 0.016113 0.007324
vt 0.983887 0.992840
vn -0.3511 0.9363 0.0000
vn 1.0000 0.0000 0.0000
vn 0.0000 -1.0000 0.0000
vn 0.0000 0.0000 -1.0000
vn 0.0000 0.0000 1.0000
usemtl BMC_Plastic_Bevel_5
s off
f 1/1/1 2/2/1 3/3/1
f 4/4/1 1/1/1 3/3/1
f 5/5/2 6/6/2 7/7/2
f 8/8/2 5/5/2 7/7/2
f 9/9/3 10/10/3 11/11/3
f 12/12/3 9/9/3 11/11/3
f 13/13/4 14/14/4 15/15/4
f 16/16/5 17/17/5 18/18/5
